<svg width="328" height="173" viewBox="0 0 328 173" fill="none" xmlns="http://www.w3.org/2000/svg">
<mask id="mask0_2037_576091" style="mask-type:alpha" maskUnits="userSpaceOnUse" x="6" y="-4" width="315" height="177">
<rect x="6.5" y="-4" width="314" height="176.627" fill="#D9D9D9"/>
</mask>
<g mask="url(#mask0_2037_576091)">
<mask id="mask1_2037_576091" style="mask-type:alpha" maskUnits="userSpaceOnUse" x="6" y="27" width="161" height="109">
<rect x="6.96094" y="27.4922" width="159.466" height="108.3" fill="url(#paint0_linear_2037_576091)"/>
</mask>
<g mask="url(#mask1_2037_576091)">
<path d="M98.9472 110.305L90.3228 111.09C89.6014 111.09 89.0156 111.675 89.0156 112.397V135.681H99.6913H113.315V115.137C113.315 114.565 112.944 114.06 112.399 113.889L100.4 110.527C99.9307 110.38 99.4405 110.305 98.9472 110.305Z" fill="url(#paint1_linear_2037_576091)"/>
<path d="M99.0587 118.778L94.6797 117.796C93.9717 117.638 93.3047 118.203 93.3047 118.962V136.041H99.959V119.943C99.959 119.381 99.5839 118.895 99.0587 118.778Z" fill="url(#paint2_linear_2037_576091)"/>
<path d="M100.27 119.627C100.27 119.065 99.8772 118.578 99.3274 118.461L94.7377 117.48C93.9957 117.322 93.2969 117.887 93.2969 118.645V118.958C93.2969 118.199 93.9638 117.634 94.6719 117.792L99.0509 118.774C99.5761 118.891 99.9501 119.377 99.9501 119.939V136.037H100.27V119.627Z" fill="url(#paint3_linear_2037_576091)"/>
<path d="M99.0509 118.776L94.6719 117.794C93.9638 117.636 93.2969 118.201 93.2969 118.96V124.43V136.038H99.9512V121.13V119.941C99.9512 119.379 99.5761 118.893 99.0509 118.776Z" fill="url(#paint4_linear_2037_576091)"/>
<path opacity="0.25" d="M95.5331 123.542L99.9512 121.129V124.748L93.2969 128.44V124.784L95.5331 123.542Z" fill="url(#paint5_linear_2037_576091)"/>
<path opacity="0.25" d="M93.2969 131.406L99.9512 127.74V129.23L93.2969 133.089V131.406Z" fill="url(#paint6_linear_2037_576091)"/>
<g opacity="0.5">
<path d="M58.3354 71.0295H55.2188L55.3581 55.2714L58.3354 54.0312V71.0295Z" fill="url(#paint7_linear_2037_576091)"/>
<path d="M64.1541 72.0735H58.1719V54.0312L64.1541 56.0856V72.0735Z" fill="url(#paint8_linear_2037_576091)"/>
</g>
<path d="M39.1819 91.6447H32.7578L33.0451 59.1636L39.1819 56.6074V91.6447Z" fill="url(#paint9_linear_2037_576091)"/>
<path d="M51.1667 93.7965H38.8359V56.6074L51.1667 60.8418V93.7965Z" fill="url(#paint10_linear_2037_576091)"/>
<line x1="39.1003" y1="60.4042" x2="51.2512" y2="64.4545" stroke="#B5D7F7" stroke-width="0.535519"/>
<line x1="39.1003" y1="64.0858" x2="51.2512" y2="68.1361" stroke="#B5D7F7" stroke-width="0.535519"/>
<line x1="39.1003" y1="67.7675" x2="51.2512" y2="71.8178" stroke="#B5D7F7" stroke-width="0.535519"/>
<path d="M34.4062 61.3942V71.5199L37.536 72.0723V60.1055L34.4062 61.3942Z" fill="url(#paint11_linear_2037_576091)"/>
<path d="M28.8692 103.172H23.5391V67.92L28.8692 66.1816V103.172Z" fill="url(#paint12_linear_2037_576091)"/>
<path d="M28.8672 66.1816L41.5793 69.9287V102.892H28.8672V66.1816Z" fill="url(#paint13_linear_2037_576091)"/>
<path d="M78.1632 94.3659H73.2656L73.4846 69.6031L78.1632 67.6543V94.3659Z" fill="url(#paint14_linear_2037_576091)"/>
<path d="M87.3069 96.0064H77.9062V67.6543L87.3069 70.8825V96.0064Z" fill="url(#paint15_linear_2037_576091)"/>
<path d="M95.5229 99.0139H92.4062L92.5456 83.2558L95.5229 82.0156V99.0139Z" fill="url(#paint16_linear_2037_576091)"/>
<path d="M101.342 100.058H95.3594V82.0156L101.342 84.0699V100.058Z" fill="url(#paint17_linear_2037_576091)"/>
<path d="M65.6534 97.0379H61.8438V71.8421L65.6534 70.5996V97.0379Z" fill="url(#paint18_linear_2037_576091)"/>
<path d="M65.6562 70.5996L74.7421 73.2778V96.8375H65.6562V70.5996Z" fill="url(#paint19_linear_2037_576091)"/>
<path d="M87.1403 102.002L82.0995 102.404C81.6771 102.404 81.3359 102.746 81.3359 103.167V112.247H87.575H95.5386V105.055C95.5386 104.721 95.3218 104.426 95.0032 104.327L87.9902 102.131C87.7138 102.046 87.4281 102.002 87.1403 102.002Z" fill="url(#paint20_linear_2037_576091)"/>
<path d="M91.9785 110.664L83.3541 111.449C82.6327 111.449 82.0469 112.034 82.0469 112.756V136.041H92.7215H106.347V115.496C106.347 114.925 105.976 114.419 105.43 114.249L91.9785 110.664Z" fill="url(#paint21_linear_2037_576091)"/>
<path d="M91.9788 110.664V136.041L81.8438 137.711L85.0573 111.294L91.9788 110.664Z" fill="url(#paint22_linear_2037_576091)"/>
<path d="M83.6979 97.3547L44.3177 86.512C42.7736 86.0864 41.1655 85.8711 39.5486 85.8711L11.243 87.4597C8.87422 87.4597 6.95312 89.1493 6.95312 91.2342V96.537C7.60617 95.9929 8.57758 95.9471 9.67721 95.9471L23.1533 104.475C24.7712 104.475 42.1213 103.6 43.7729 103.922L82.8031 109.63C84.5927 110.123 86.7066 112.214 86.7066 113.864V100.959C86.7066 99.3065 85.4875 97.8479 83.6979 97.3547Z" fill="url(#paint23_linear_2037_576091)"/>
<path d="M83.7609 100.677C83.7185 100.67 83.6772 100.656 83.6359 100.646L44.4448 92.4439C42.8149 92.1256 41.21 91.9612 39.6138 91.957C39.5704 91.957 39.528 91.9581 39.4845 91.9601L9.73371 93.5426C9.69568 93.5446 9.65873 93.5457 9.6207 93.5457C8.73948 93.5467 7.94409 93.5831 7.33126 93.89C7.09764 94.0076 6.95312 94.225 6.95312 94.4612V100.994C6.95312 101.426 7.42036 101.748 7.89411 101.632C8.40155 101.509 8.98939 101.49 9.6207 101.489C9.65873 101.489 9.69568 101.488 9.73371 101.486L39.4856 99.9034C39.528 99.9013 39.5704 99.9003 39.6117 99.9003C41.2057 99.9034 42.7171 100.023 44.4437 100.269L83.5479 106.199C83.6598 106.215 83.7696 106.24 83.8761 106.275C85.5679 106.813 86.7056 108.228 86.7056 109.823V104.263C86.7077 102.631 86.7077 101.186 83.7609 100.677Z" fill="url(#paint24_linear_2037_576091)"/>
<path d="M83.6979 108.62L44.4437 102.667C42.6954 102.418 41.1666 102.299 39.5486 102.299L9.67721 103.889C8.57758 103.889 7.60617 103.934 6.95312 104.478V141.747L41.9891 140.952H86.7066V112.222C86.7066 110.572 86.7066 109.118 83.6979 108.62Z" fill="url(#paint25_linear_2037_576091)"/>
<path d="M84.5889 113.207C84.5889 111.098 83.022 110.936 83.022 110.936C83.022 110.936 57.4817 107.123 52.7801 106.662C50.3961 106.428 49.1498 107.046 48.5 107.711C49.2334 107.246 50.3961 106.918 52.2379 107.099C56.9395 107.56 82.4798 111.373 82.4798 111.373C82.4798 111.373 84.0467 111.535 84.0467 113.644C84.0467 115.571 84.0467 134.072 84.0467 136.867L84.4976 136.799C84.6041 136.924 84.8149 136.852 84.8127 136.691C84.7801 133.457 84.5889 115.128 84.5889 113.207Z" fill="url(#paint26_linear_2037_576091)"/>
<path d="M82.4832 111.371C82.4832 111.371 56.944 107.558 52.2412 107.098C50.3995 106.916 49.2368 107.244 48.5034 107.709C47.8721 108.356 47.8047 109.048 47.8047 109.048V137.572L60.897 140.383L84.0511 135.85C84.0511 133.055 84.0511 115.57 84.0511 113.642C84.0501 111.534 82.4832 111.371 82.4832 111.371Z" fill="url(#paint27_linear_2037_576091)"/>
<path d="M12.7766 106.65C12.7766 106.65 33.5913 105.616 37.1173 105.616C38.1311 105.616 38.858 105.877 39.3806 106.25C38.8536 105.68 38.0115 105.219 36.6652 105.219C33.1382 105.219 12.3245 106.253 12.3245 106.253C12.3245 106.253 9.76562 106.131 9.76562 108.078C9.76562 110.024 9.76562 141.18 9.76562 141.18L10.2166 141.173C10.2166 137.881 10.2166 110.277 10.2166 108.474C10.2176 106.529 12.7766 106.65 12.7766 106.65Z" fill="url(#paint28_linear_2037_576091)"/>
<path d="M40.2619 108.382C40.2619 108.382 40.2347 107.173 39.3817 106.249C38.8591 105.876 38.1311 105.615 37.1184 105.615C33.5913 105.615 12.7777 106.649 12.7777 106.649C12.7777 106.649 10.2188 106.528 10.2188 108.474C10.2188 110.277 10.2188 137.88 10.2188 141.173L40.263 139.919C40.1923 139.737 40.2619 108.382 40.2619 108.382Z" fill="url(#paint29_linear_2037_576091)"/>
<path d="M67.1172 109.119V140.046L67.8506 140.006V109.225L67.1172 109.119Z" fill="#00AEEF"/>
<path d="M23.4219 106.194V140.194H24.1977V106.148L23.4219 106.194Z" fill="#00AEEF"/>
<path d="M40.2319 122.363C39.8516 122.372 39.4942 122.382 39.2095 122.382C35.5031 122.382 13.6268 123.019 13.6268 123.019C13.6268 123.019 10.9375 122.897 10.9375 124.844C10.9375 125.677 10.9375 136.246 10.9375 142.041L40.2569 140.798C40.2222 140.706 40.2233 129.228 40.2319 122.363Z" fill="url(#paint30_linear_2037_576091)"/>
<path d="M60.8892 141.267L83.4653 140.037C83.4653 136.121 83.4653 128.247 83.4653 127.446C83.4653 125.338 81.8984 125.175 81.8984 125.175C81.8984 125.175 56.3592 122.951 51.6564 122.49C50.722 122.399 49.1823 122.268 47.7969 122.221V140.535L60.8892 141.267Z" fill="url(#paint31_linear_2037_576091)"/>
<path opacity="0.23" d="M76.0531 100.899L83.9776 102.581C84.1939 102.627 84.346 102.796 84.346 102.992V104.267C84.346 104.536 84.0656 104.736 83.7668 104.681L75.8423 103.216C75.6196 103.175 75.4609 103.003 75.4609 102.802V101.309C75.4599 101.036 75.75 100.835 76.0531 100.899Z" fill="#398EDD"/>
<path opacity="0.23" d="M46.85 95.6312L54.7745 97.3135C54.9907 97.3593 55.1429 97.5289 55.1429 97.7245V99C55.1429 99.2684 54.8625 99.4692 54.5637 99.414L46.6392 97.9492C46.4165 97.9076 46.2578 97.7359 46.2578 97.5351V96.0422C46.2557 95.7686 46.5469 95.5667 46.85 95.6312Z" fill="#398EDD"/>
<path d="M23.4219 106.992V141.265L24.1977 140.954V106.148L23.4219 106.992Z" fill="url(#paint32_linear_2037_576091)"/>
<path opacity="0.2" d="M23.4252 108.027L10.2188 120.225C10.2188 121.865 10.2188 123.546 10.2188 125.173L23.4252 112.772V108.027Z" fill="url(#paint33_linear_2037_576091)"/>
<path opacity="0.2" d="M23.4252 118.367L10.2188 130.604C10.2188 131.185 10.2188 131.736 10.2188 132.25L23.4252 119.89V118.367Z" fill="url(#paint34_linear_2037_576091)"/>
<path opacity="0.2" d="M39.3771 106.258C39.2359 106.158 39.0805 106.066 38.9077 105.984L24.1953 119.332V127.098C24.1953 127.098 36.4097 116.142 40.2475 112.626C40.2529 110.084 40.2573 108.391 40.2573 108.391C40.2573 108.391 40.2301 107.182 39.3771 106.258Z" fill="url(#paint35_linear_2037_576091)"/>
<path opacity="0.2" d="M24.1953 133.988L40.2345 117.639L40.2377 117.343C40.2388 116.841 40.2399 116.349 40.2399 115.869L24.1953 130.81V133.988Z" fill="url(#paint36_linear_2037_576091)"/>
<path d="M67.1172 109.119V138.431L67.8506 138.393V109.219L67.1172 109.119Z" fill="url(#paint37_linear_2037_576091)"/>
<path opacity="0.2" d="M67.1232 109.129L62.4356 108.459L47.8047 119.666V126.359L67.1232 110.176V109.129Z" fill="url(#paint38_linear_2037_576091)"/>
<path opacity="0.2" d="M67.1232 118.125L47.8047 134.77V137.179L49.5161 137.097L67.1232 120.578V118.125Z" fill="url(#paint39_linear_2037_576091)"/>
<path opacity="0.2" d="M67.8516 125.112L82.4781 111.383L78.1807 110.746L67.8516 119.829V125.112Z" fill="url(#paint40_linear_2037_576091)"/>
<path opacity="0.2" d="M67.8516 131.146L84.045 115.887C84.045 115.293 84.045 114.788 84.045 114.395L67.8516 129.522V131.146Z" fill="url(#paint41_linear_2037_576091)"/>
<path opacity="0.2" d="M67.8516 136.103L76.5486 135.492L84.0461 127.122C84.0461 124.385 84.0461 121.384 84.0461 118.895L67.8516 134.932V136.103Z" fill="url(#paint42_linear_2037_576091)"/>
<path d="M41.4453 83.266V71.7917C41.4453 71.0292 43.0839 70.4018 43.8293 70.6577L85.1664 85.2677C85.5826 85.4113 85.8575 85.8024 85.852 86.2456L86.8039 94.9775C86.7963 95.6808 85.5576 96.7815 84.4134 96.3768L42.2505 84.3064C41.7724 84.1691 41.4453 83.7467 41.4453 83.266Z" fill="url(#paint43_linear_2037_576091)"/>
<path opacity="0.23" d="M41.4453 83.266V71.7917C41.4453 71.0292 43.0839 70.4018 43.8293 70.6577L85.1664 85.2677C85.5826 85.4113 85.8575 85.8024 85.852 86.2456L86.8039 94.9775C86.7963 95.6808 85.5576 96.7815 84.4134 96.3768L42.2505 84.3064C41.7724 84.1691 41.4453 83.7467 41.4453 83.266Z" fill="#9EE1F1"/>
<path d="M42.5859 82.7007L42.5881 71.8601C42.5881 71.0985 43.3715 70.5669 44.1148 70.8228L86.2157 85.3246C86.6319 85.4681 86.9046 85.8583 86.9003 86.3015L86.8308 94.7743C86.8221 95.4765 86.1353 95.9936 85.4627 95.8011L43.39 83.7401C42.9119 83.6038 42.5859 83.1814 42.5859 82.7007Z" fill="#19549D"/>
<path d="M42.5859 82.7007L42.5881 71.8601C42.5881 71.0985 43.3715 70.5669 44.1148 70.8228L86.2157 85.3246C86.6319 85.4681 86.9046 85.8583 86.9003 86.3015L86.8308 94.7743C86.8221 95.4765 86.1353 95.9936 85.4627 95.8011L43.39 83.7401C42.9119 83.6038 42.5859 83.1814 42.5859 82.7007Z" fill="url(#paint44_linear_2037_576091)"/>
<path d="M45.3761 76.6855L46.7822 77.1527L46.7572 81.98L49.3074 82.7447L49.3042 83.964L45.3359 82.8061L45.3761 76.6855ZM49.7258 81.1009C49.7268 80.6244 49.8094 80.2197 49.9735 79.8868C50.1365 79.5549 50.3636 79.301 50.6526 79.1263C50.9406 78.9525 51.2807 78.8589 51.6718 78.8454C52.0608 78.8318 52.4835 78.9015 52.9388 79.0534C53.3919 79.2043 53.8059 79.4134 54.184 79.6797C54.56 79.945 54.8838 80.2519 55.1554 80.6025C55.426 80.9521 55.6379 81.336 55.7889 81.7542C55.94 82.1725 56.0171 82.6094 56.0193 83.0661C56.0215 83.5229 55.9476 83.9141 55.7998 84.2407C55.6509 84.5674 55.4412 84.8223 55.1707 85.0054C54.899 85.1885 54.5752 85.2957 54.1982 85.3279C53.8189 85.3591 53.4017 85.3102 52.9464 85.1771C52.4879 85.0439 52.063 84.8483 51.6718 84.5893C51.2785 84.3292 50.9373 84.0212 50.6483 83.6644C50.3582 83.3065 50.1321 82.9091 49.9702 82.4731C49.8051 82.0351 49.7247 81.5784 49.7258 81.1009ZM51.1068 81.5326C51.1068 81.8104 51.1503 82.0778 51.2372 82.3358C51.3241 82.5928 51.4491 82.831 51.611 83.0495C51.7729 83.268 51.9674 83.4584 52.1923 83.6196C52.4172 83.7809 52.6672 83.9026 52.9431 83.9848C53.217 84.067 53.4647 84.094 53.6853 84.067C53.9048 84.0399 54.0928 83.9671 54.2492 83.8475C54.4046 83.7289 54.5241 83.5697 54.6067 83.3689C54.6893 83.1691 54.7295 82.934 54.7295 82.6625C54.7284 82.3972 54.686 82.1371 54.6024 81.8832C54.5187 81.6294 54.3992 81.3943 54.2427 81.1789C54.0862 80.9636 53.8983 80.7732 53.6788 80.6098C53.4582 80.4455 53.2115 80.3196 52.9388 80.2301C52.6639 80.1406 52.4151 80.1063 52.1912 80.1271C51.9663 80.1479 51.7729 80.2166 51.6121 80.3321C51.4502 80.4486 51.3252 80.6088 51.2383 80.8137C51.1503 81.0218 51.1068 81.2601 51.1068 81.5326ZM56.8342 80.4954L58.4619 81.0364L60.7416 85.6151L60.7568 85.6192L60.722 81.7886L61.8575 82.1662L61.9129 87.6438L60.4167 87.2068L58.061 82.5148L58.0458 82.5095L58.0708 86.5223L56.8625 86.1696L56.8342 80.4954ZM67.3676 88.8641C67.0623 88.9536 66.7418 88.989 66.406 88.9703C66.0681 88.9515 65.7204 88.8912 65.3629 88.7872C64.9804 88.6758 64.6262 88.5073 64.298 88.2795C63.9688 88.0506 63.683 87.777 63.4396 87.4576C63.1951 87.1371 63.0039 86.7792 62.8637 86.3839C62.7235 85.9886 62.6518 85.5724 62.6475 85.1355C62.6431 84.6995 62.7062 84.3271 62.8376 84.0171C62.9691 83.7081 63.1538 83.4698 63.3907 83.3023C63.6276 83.1348 63.9079 83.0401 64.2317 83.0162C64.5544 82.9933 64.9054 83.0453 65.2857 83.1723C65.6726 83.3013 66.0279 83.4709 66.3517 83.68C66.6733 83.888 66.9558 84.1554 67.2003 84.4811L66.4777 85.1344C66.331 84.9243 66.1669 84.7474 65.9855 84.6038C65.8029 84.4602 65.5748 84.3437 65.302 84.2543C65.0727 84.1793 64.8652 84.1554 64.6805 84.1804C64.4947 84.2054 64.335 84.273 64.2024 84.3843C64.0687 84.4956 63.9677 84.6454 63.8981 84.8358C63.8286 85.0262 63.7949 85.2457 63.7982 85.4954C63.8014 85.7503 63.8406 85.9938 63.9155 86.2278C63.9905 86.4609 64.097 86.6762 64.2339 86.8729C64.3708 87.0685 64.5338 87.238 64.7229 87.3806C64.9109 87.5231 65.1206 87.6282 65.3498 87.6968C65.5834 87.7666 65.7834 87.7978 65.9507 87.7905C66.1181 87.7832 66.2506 87.7645 66.3484 87.7343L66.3354 86.8708L65.4704 86.6045L65.4552 85.5183L67.3252 86.1092L67.3676 88.8641ZM71.1826 86.5816C71.0838 86.4161 70.9642 86.2747 70.8219 86.1571C70.6796 86.0395 70.5166 85.9501 70.3308 85.8897C70.145 85.8294 69.9722 85.8138 69.8146 85.845C69.656 85.8762 69.5191 85.9459 69.4039 86.0562C69.2887 86.1665 69.1985 86.3142 69.1355 86.4973C69.0725 86.6814 69.0431 86.8937 69.0464 87.133C69.0508 87.3775 69.0877 87.6126 69.1583 87.8363C69.229 88.0599 69.3235 88.2638 69.4419 88.448C69.5604 88.6321 69.6984 88.7892 69.857 88.9193C70.0146 89.0493 70.1819 89.1398 70.3601 89.1939C70.5633 89.2543 70.7415 89.2595 70.8958 89.2095C71.049 89.1596 71.1739 89.0629 71.2707 88.9193L72.0943 89.8629C71.915 90.1105 71.6825 90.2645 71.3989 90.3248C71.1131 90.3862 70.8154 90.3716 70.5079 90.2822C70.1558 90.1792 69.8277 90.021 69.5245 89.8057C69.2203 89.5893 68.9551 89.3292 68.7291 89.0254C68.5031 88.7206 68.3238 88.3783 68.1934 87.9996C68.063 87.6209 67.9935 87.2214 67.987 86.8021C67.9805 86.3829 68.037 86.0239 68.1554 85.7243C68.2738 85.4257 68.4434 85.1937 68.6607 85.0293C68.8769 84.865 69.1355 84.7703 69.4332 84.7432C69.7299 84.7162 70.0537 84.762 70.4046 84.8795C70.5307 84.9211 70.6622 84.9784 70.7991 85.0501C70.936 85.1219 71.0696 85.2083 71.2022 85.3092C71.3348 85.4101 71.4608 85.5287 71.5836 85.664C71.7053 85.7992 71.815 85.9511 71.9128 86.1207L71.1826 86.5816ZM72.5289 85.7149L73.4753 86.0291L73.5166 87.8956L75.316 88.4667L75.2726 86.6273L76.1777 86.928L76.2994 91.8417L75.391 91.5764L75.3399 89.4311L73.5395 88.8735L73.5873 91.05L72.6376 90.7732L72.5289 85.7149ZM78.3074 87.6365L79.0191 87.8737L80.8229 93.1619L79.8732 92.8852L79.5124 91.7709L77.9901 91.3132L77.6848 92.2464L76.7058 91.9603L78.3074 87.6365ZM78.9985 87.5189L78.6377 86.875L78.3085 87.2869L77.5544 87.0341L78.1933 86.2809L79.0919 86.5899L79.7504 87.7707L78.9985 87.5189ZM78.6769 89.143L78.24 90.4913L79.1973 90.7857L78.6769 89.143ZM84.2304 92.3952C84.2391 92.6677 84.2152 92.9102 84.1598 93.1214C84.1033 93.3325 84.0153 93.5042 83.8936 93.6363C83.7719 93.7695 83.6176 93.8558 83.4307 93.8964C83.2427 93.937 83.0232 93.9214 82.7722 93.8486C82.5169 93.7747 82.2898 93.6603 82.092 93.5052C81.8932 93.3502 81.7258 93.1671 81.5889 92.9549C81.452 92.7427 81.3455 92.5075 81.2716 92.2516C81.1977 91.9957 81.1564 91.7272 81.1478 91.4463L81.0619 88.552L81.8823 88.8246L81.9681 91.6596C81.9725 91.8053 81.9953 91.9457 82.0355 92.081C82.0757 92.2162 82.13 92.339 82.1996 92.4493C82.268 92.5595 82.3495 92.6542 82.443 92.7322C82.5364 92.8103 82.6364 92.8654 82.7429 92.8977C82.8494 92.9299 82.9461 92.9341 83.0341 92.9102C83.121 92.8862 83.196 92.8394 83.2579 92.7697C83.3198 92.7 83.3666 92.6084 83.3981 92.4971C83.4296 92.3858 83.4437 92.2578 83.4394 92.1143L83.3503 89.3146L84.1381 89.5768L84.2304 92.3952Z" fill="white"/>
<path d="M61.3164 80.2475L60.8198 80.0852L60.0212 78.6755L60.0798 79.8428L59.5735 79.6763L59.4844 77.8047L59.9853 77.9743L60.7785 79.3746L60.7144 78.2208L61.2066 78.3873L61.3164 80.2475Z" fill="white"/>
<path d="M63.338 80.9079L62.8534 80.7488L62.8013 79.9716L62.0809 79.7323L62.1298 80.5116L61.6354 80.3493L61.5234 78.4922L62.0124 78.6576L62.058 79.3879L62.7763 79.6283L62.7274 78.9L63.2066 79.0623L63.338 80.9079Z" fill="white"/>
<path d="M64.747 81.0344L64.0907 80.818L64.0016 81.127L63.4844 80.9574L64.0798 79.3594L64.5264 79.5103L65.4011 81.5848L64.8904 81.4173L64.747 81.0344ZM64.5177 79.4156L64.1472 79.2908L63.7354 78.7695L64.2167 78.9339L64.5177 79.4156ZM64.1798 80.5122L64.6057 80.6536L64.3428 79.9462L64.1798 80.5122Z" fill="white"/>
<path d="M67.5227 80.8497L66.9511 80.6572L67.0891 82.1398L66.623 81.9868L66.4882 80.5012L65.92 80.3097L65.8906 79.9727L67.489 80.5136L67.5227 80.8497Z" fill="white"/>
<path d="M69.4367 82.9086L68.9869 82.7608L68.9075 82.0024L68.2393 81.7808L68.3153 82.5413L67.8568 82.3905L67.6797 80.5781L68.1339 80.7321L68.2056 81.4458L68.8728 81.6684L68.7989 80.9568L69.2444 81.1077L69.4367 82.9086Z" fill="white"/>
<path d="M70.9653 81.6892L71.1022 82.8555C71.1175 82.9887 71.1023 83.0948 71.0566 83.1728C71.0099 83.2519 70.936 83.2987 70.8328 83.3143C70.7296 83.3299 70.6046 83.3133 70.4557 83.2644C70.2297 83.1905 70.0461 83.075 69.9027 82.9169C69.7592 82.7598 69.6766 82.5808 69.6517 82.3811L69.5234 81.1992L69.97 81.3501L70.1026 82.5382C70.1297 82.7369 70.2352 82.8669 70.4177 82.9273C70.5101 82.9574 70.5763 82.9554 70.6176 82.9221C70.6589 82.8877 70.673 82.816 70.6611 82.7046L70.5274 81.5394L70.9653 81.6892Z" fill="white"/>
<path d="M72.8669 83.2145C72.8886 83.3882 72.8767 83.5307 72.8288 83.6431C72.781 83.7565 72.7017 83.8293 72.592 83.8626C72.4811 83.8959 72.3486 83.8876 72.1943 83.8376C72.04 83.7867 71.8987 83.7065 71.7705 83.5973C71.6423 83.487 71.5369 83.3559 71.4532 83.203C71.3706 83.0501 71.3174 82.8888 71.2946 82.7182L71.2826 82.6173C71.262 82.4425 71.2761 82.3 71.325 82.1886C71.3739 82.0773 71.4554 82.0066 71.5673 81.9754C71.6792 81.9442 71.8118 81.9546 71.9661 82.0066C72.1182 82.0576 72.2573 82.1387 72.3844 82.25C72.5116 82.3613 72.617 82.4924 72.6985 82.6464C72.781 82.7993 72.8332 82.9616 72.856 83.1323L72.8669 83.2145ZM71.8183 81.6445L72.0215 81.7132L72.3975 82.0919L72.1291 82.0014L71.9357 81.8016L71.7759 81.8817L71.5065 81.7902L71.8183 81.6445ZM72.4192 82.9939C72.3975 82.817 72.3507 82.6735 72.2801 82.5632C72.2095 82.4519 72.1182 82.378 72.0074 82.3405C71.7901 82.2677 71.6944 82.3894 71.7216 82.7078L71.7357 82.8389C71.7575 83.0137 71.8031 83.1583 71.8726 83.2717C71.9433 83.3851 72.0367 83.4621 72.1519 83.4995C72.2616 83.5359 72.341 83.5172 72.3888 83.4444C72.4366 83.3715 72.4496 83.2488 72.429 83.0761L72.4192 82.9939ZM72.4627 81.6633L72.756 81.7631L72.5061 81.9941L72.291 81.9213L72.4627 81.6633Z" fill="white"/>
<path d="M74.5552 84.0097C74.566 84.1314 74.5487 84.2292 74.5019 84.3041C74.4541 84.379 74.3802 84.4248 74.2781 84.4415C74.176 84.4581 74.0542 84.4435 73.913 84.3967C73.6805 84.3208 73.486 84.1834 73.3317 83.9858C73.1774 83.7881 73.0818 83.5509 73.0459 83.2731L73.035 83.1857C73.0122 83.012 73.0231 82.8705 73.0676 82.7613C73.1111 82.652 73.185 82.5813 73.2893 82.5501C73.3925 82.5178 73.5186 82.5272 73.6663 82.5771C73.8793 82.6489 74.0564 82.7623 74.2009 82.9173C74.3444 83.0723 74.4389 83.2513 74.4835 83.4541L74.0629 83.3137C74.0456 83.2055 74.0075 83.1202 73.951 83.0557C73.8945 82.9922 73.8141 82.9433 73.7098 82.9079C73.6044 82.8726 73.5327 82.8861 73.4936 82.9485C73.4545 83.0109 73.4458 83.1285 73.4664 83.3012L73.4827 83.4261C73.5077 83.6154 73.549 83.759 73.6077 83.8557C73.6663 83.9525 73.7533 84.0201 73.8684 84.0586C73.9662 84.0908 74.0379 84.0919 74.0836 84.0628C74.1292 84.0336 74.1466 83.9691 74.1357 83.8692L74.5552 84.0097Z" fill="white"/>
<path d="M46.4833 72.9579C46.2378 72.8767 45.9748 72.9547 45.8303 73.1327C45.827 73.1358 45.8238 73.141 45.8205 73.1451L45.7934 73.1847L45.0469 74.301L45.826 74.5569C46.0585 74.6339 46.3051 74.5642 46.4475 74.4009L46.5181 74.2947L47.2429 73.2086L46.4833 72.9579Z" fill="#0037C1" stroke="white" stroke-width="0.160656" stroke-miterlimit="10"/>
<path d="M48.1574 73.0554C47.9032 72.9722 47.6326 73.0565 47.4903 73.2479C47.4794 73.2625 47.4696 73.277 47.4609 73.2916L46.2266 75.1414L46.9872 75.3911C47.248 75.4764 47.525 75.3859 47.663 75.1861L48.918 73.3062L48.1574 73.0554Z" fill="#E2783A" stroke="white" stroke-width="0.160656" stroke-miterlimit="10"/>
<path d="M49.336 73.8952C49.098 73.8172 48.8459 73.8869 48.6982 74.0513C48.6906 74.0607 48.6612 74.095 48.6612 74.095L47.8984 75.2363L48.6591 75.486C48.9198 75.5713 49.198 75.4797 49.3371 75.2789L50.0944 74.1439L49.336 73.8952Z" fill="#6DB357" stroke="white" stroke-width="0.160656" stroke-miterlimit="10"/>
<path opacity="0.7" d="M134.432 79.3459C134.699 79.0881 134.845 78.7925 134.856 78.4898C134.866 78.1871 134.741 77.8882 134.492 77.6239C134.244 77.3596 133.881 77.1396 133.442 76.9865C133.002 76.8334 132.502 76.7528 131.993 76.7531H131.899C131.697 76.1688 131.181 75.6395 130.428 75.2453C129.675 74.8511 128.726 74.6134 127.726 74.5684C126.726 74.5233 125.728 74.6733 124.884 74.9955C124.039 75.3178 123.395 75.7948 123.047 76.3544C121.94 76.4303 120.918 76.7457 120.176 77.2404C119.434 77.7352 119.024 78.3748 119.023 79.0376C119.025 79.1411 119.035 79.2444 119.055 79.3473L134.432 79.3459Z" fill="url(#paint45_linear_2037_576091)"/>
</g>
<mask id="mask2_2037_576091" style="mask-type:alpha" maskUnits="userSpaceOnUse" x="200" y="64" width="160" height="108">
<rect x="200.555" y="64.0781" width="158.854" height="107.884" fill="url(#paint46_linear_2037_576091)"/>
</mask>
<g mask="url(#mask2_2037_576091)">
<path d="M305.139 141.906L293.18 142.995C292.179 142.995 291.367 143.806 291.367 144.808V177.094H306.17H325.062V148.607C325.062 147.814 324.547 147.113 323.791 146.877L307.154 142.214C306.502 142.01 305.823 141.906 305.139 141.906Z" fill="url(#paint47_linear_2037_576091)"/>
<path d="M305.291 153.652L299.219 152.291C298.237 152.071 297.312 152.855 297.312 153.907V177.589H306.54V155.268C306.54 154.488 306.019 153.814 305.291 153.652Z" fill="url(#paint48_linear_2037_576091)"/>
<path d="M306.981 154.832C306.981 154.053 306.437 153.379 305.675 153.216L299.31 151.855C298.282 151.636 297.312 152.42 297.312 153.471V153.905C297.312 152.853 298.237 152.069 299.219 152.289L305.291 153.649C306.019 153.812 306.538 154.486 306.538 155.265V177.587H306.981V154.832Z" fill="url(#paint49_linear_2037_576091)"/>
<path d="M305.291 153.652L299.219 152.291C298.237 152.071 297.312 152.855 297.312 153.907V161.492V177.588H306.54V156.917V155.268C306.54 154.488 306.019 153.814 305.291 153.652Z" fill="url(#paint50_linear_2037_576091)"/>
<path opacity="0.25" d="M300.413 160.262L306.54 156.916V161.935L297.312 167.054V161.985L300.413 160.262Z" fill="url(#paint51_linear_2037_576091)"/>
<path opacity="0.25" d="M297.312 171.163L306.54 166.08V168.146L297.312 173.497V171.163Z" fill="url(#paint52_linear_2037_576091)"/>
<g opacity="0.5">
<path d="M248.822 87.4434H244.5L244.693 65.5927L248.822 63.873V87.4434Z" fill="url(#paint53_linear_2037_576091)"/>
<path d="M256.889 88.8909H248.594V63.873L256.889 66.7216V88.8909Z" fill="url(#paint54_linear_2037_576091)"/>
</g>
<path d="M222.259 116.029H213.352L213.75 70.9898L222.259 67.4453V116.029Z" fill="url(#paint55_linear_2037_576091)"/>
<path d="M238.887 119.013H221.789V67.4453L238.887 73.3169V119.013Z" fill="url(#paint56_linear_2037_576091)"/>
<line x1="222.124" y1="72.8085" x2="238.973" y2="78.4247" stroke="#B5D7F7" stroke-width="0.535519"/>
<line x1="222.124" y1="77.9139" x2="238.973" y2="83.5302" stroke="#B5D7F7" stroke-width="0.535519"/>
<line x1="222.124" y1="83.0194" x2="238.973" y2="88.6357" stroke="#B5D7F7" stroke-width="0.535519"/>
<path d="M215.648 74.0819V88.1226L219.988 88.8884V72.2949L215.648 74.0819Z" fill="url(#paint57_linear_2037_576091)"/>
<path d="M207.977 132.013H200.586V83.1312L207.977 80.7207V132.013Z" fill="url(#paint58_linear_2037_576091)"/>
<path d="M207.984 80.7207L225.611 85.9165V131.624H207.984V80.7207Z" fill="url(#paint59_linear_2037_576091)"/>
<path d="M276.299 119.803H269.508L269.811 85.4659L276.299 82.7637V119.803Z" fill="url(#paint60_linear_2037_576091)"/>
<path d="M288.973 122.077H275.938V82.7637L288.973 87.24V122.077Z" fill="url(#paint61_linear_2037_576091)"/>
<path d="M300.384 126.246H296.062L296.256 104.395L300.384 102.676V126.246Z" fill="url(#paint62_linear_2037_576091)"/>
<path d="M308.451 127.694H300.156V102.676L308.451 105.524V127.694Z" fill="url(#paint63_linear_2037_576091)"/>
<path d="M258.97 123.508H253.688V88.5705L258.97 86.8477V123.508Z" fill="url(#paint64_linear_2037_576091)"/>
<path d="M258.969 86.8477L271.567 90.5613V123.23H258.969V86.8477Z" fill="url(#paint65_linear_2037_576091)"/>
<path d="M288.744 130.391L281.754 130.948C281.168 130.948 280.695 131.422 280.695 132.007V144.597H289.347H300.389V134.624C300.389 134.161 300.088 133.752 299.647 133.614L289.922 130.57C289.539 130.452 289.143 130.391 288.744 130.391Z" fill="url(#paint66_linear_2037_576091)"/>
<path d="M295.467 142.402L283.508 143.491C282.508 143.491 281.695 144.302 281.695 145.304V177.59H296.497H315.39V149.103C315.39 148.31 314.876 147.609 314.119 147.373L295.467 142.402Z" fill="url(#paint67_linear_2037_576091)"/>
<path d="M295.468 142.402V177.59L281.414 179.906L285.87 143.276L295.468 142.402Z" fill="url(#paint68_linear_2037_576091)"/>
</g>
<ellipse cx="157.849" cy="183.633" rx="177.162" ry="61.3456" transform="rotate(-0.554191 157.849 183.633)" fill="url(#paint69_linear_2037_576091)"/>
<path opacity="0.7" d="M81.3929 42.0362C81.3289 41.5394 81.1207 41.0727 80.7944 40.6944C80.4682 40.3161 80.0384 40.0431 79.5587 39.9095C79.0791 39.776 78.5709 39.7877 78.0979 39.9434C77.6249 40.0991 77.208 40.3918 76.8995 40.7848C76.7416 40.2472 76.4468 39.7605 76.0443 39.373C75.6418 38.9856 75.1456 38.7109 74.605 38.5762C74.0644 38.4415 73.4982 38.4515 72.9626 38.6052C72.4271 38.7589 71.9408 39.051 71.552 39.4524C71.166 38.5256 70.4732 37.7618 69.5913 37.2908C68.7093 36.8197 67.6926 36.6705 66.7137 36.8684C65.7349 37.0664 64.8543 37.5993 64.2215 38.3766C63.5886 39.154 63.2426 40.1278 63.2422 41.1328C63.2426 41.4391 63.2744 41.7446 63.3371 42.0443L81.3929 42.0362Z" fill="url(#paint70_linear_2037_576091)"/>
<path opacity="0.5" d="M308.508 54.0742C308.401 53.2398 308.05 52.4553 307.501 51.8181C306.954 51.181 306.23 50.7219 305.42 50.4995C304.614 50.2727 303.758 50.2924 302.964 50.5567C302.167 50.8176 301.465 51.3082 300.946 51.9671C300.682 51.0651 300.187 50.248 299.511 49.5946C298.835 48.9447 297.999 48.4826 297.089 48.2543C296.179 48.0284 295.226 48.0467 294.325 48.306C293.423 48.5635 292.604 49.0536 291.951 49.7273C291.304 48.1714 290.138 46.8873 288.651 46.0933C287.17 45.2979 285.458 45.0444 283.809 45.3768C282.161 45.7141 280.68 46.6097 279.617 47.912C278.55 49.2228 277.968 50.86 277.969 52.5495C277.969 53.0648 278.022 53.5786 278.128 54.0831L308.508 54.0742Z" fill="url(#paint71_linear_2037_576091)"/>
<path opacity="0.7" d="M231.625 58.5086C231.816 58.3244 231.92 58.1133 231.928 57.897C231.936 57.6807 231.846 57.4672 231.668 57.2784C231.491 57.0896 231.232 56.9324 230.918 56.823C230.604 56.7136 230.247 56.6561 229.883 56.6562H229.816C229.672 56.2388 229.303 55.8606 228.765 55.579C228.227 55.2974 227.549 55.1276 226.834 55.0954C226.12 55.0633 225.407 55.1704 224.804 55.4006C224.201 55.6308 223.74 55.9716 223.492 56.3714C222.701 56.4257 221.97 56.6509 221.44 57.0044C220.91 57.3578 220.617 57.8148 220.617 58.2883C220.618 58.3622 220.626 58.4361 220.64 58.5095L231.625 58.5086Z" fill="url(#paint72_linear_2037_576091)"/>
<path d="M186.83 131.496C196.65 131.496 204.605 123.595 204.605 113.841C204.605 104.086 196.65 96.1855 186.83 96.1855C177.009 96.1855 169.055 104.086 169.055 113.841C169.055 123.595 177.009 131.496 186.83 131.496Z" fill="url(#paint73_linear_2037_576091)"/>
<path d="M185.813 115.443C184.047 110.985 180.392 108.271 178.592 108.822C177.481 109.164 175.593 110.919 175.815 112.133C176.093 113.953 178.159 113.236 180.259 115.995C182.991 119.581 182.814 119.636 183.591 120.409C184.702 121.512 188.035 121.512 189.702 119.305C192.49 115.112 196.356 105.942 205.71 98.3174C207.376 96.905 208.887 96.1546 208.887 96.0553C208.887 95.956 206.499 96.0884 201 99.6857C195.489 103.283 189.702 108.271 185.813 115.443Z" fill="url(#paint74_linear_2037_576091)"/>
<path d="M128.164 62.3981C125.629 61.6818 123.32 61.0617 121.285 60.6849C121.171 60.3187 121.037 59.9632 120.87 59.6291C120.79 59.4688 120.696 59.3164 120.606 59.1641L119.647 51.4051C119.535 50.491 118.39 50.0981 117.711 50.7396C116.108 52.255 115.69 54.3023 115.626 55.7857C114.121 55.5238 112.521 55.7136 111.048 56.4459C107.676 58.1244 107.77 62.5852 108.041 65.886C108.308 69.1094 112.297 71.317 115.621 70.9562C117.676 71.8917 120.529 72.6347 124.033 73.6263C132.667 76.0692 142.774 74.7168 143.498 72.8913C144.396 70.6221 136.798 64.8383 128.164 62.3981Z" fill="url(#paint75_linear_2037_576091)"/>
<path d="M146.349 67.4847L127.664 60.5943C126.823 60.2843 125.92 60.8589 125.784 61.7917L123.853 74.9523C123.723 75.8343 124.338 76.6415 125.177 76.695L152.192 78.4376L146.349 67.4847Z" fill="white"/>
<path d="M114.18 67.6097C114.718 67.4681 120.694 64.2902 117.306 59.0195" stroke="white" stroke-width="1.11629" stroke-miterlimit="10" stroke-linecap="round"/>
<path d="M159.421 109.732C158.568 103.769 169.932 103.136 172.113 103.389C173.868 103.595 172.853 113.669 171.66 119.701C170.467 125.734 169.112 131.622 164.643 129.876C162.185 128.917 160.683 118.571 159.421 109.732Z" fill="url(#paint76_linear_2037_576091)"/>
<path d="M156.614 109.1C159.142 103.695 147.391 102.314 145.239 101.854C143.508 101.482 141.58 111.406 140.984 117.538C140.387 123.666 139.985 129.712 144.744 129.493C147.357 129.37 152.867 117.11 156.614 109.1Z" fill="url(#paint77_linear_2037_576091)"/>
<path d="M146.896 69.67L141.838 92.0783L135.383 109.307L176.294 109.908L171.013 68.8281L146.896 69.67Z" fill="white"/>
<path d="M146.896 69.67L141.838 92.0783L135.383 109.307L176.294 109.908L171.013 68.8281L146.896 69.67Z" fill="white"/>
<path d="M157.494 109.586L157.164 81.8398L156.98 84.8975L156.336 109.628L157.494 109.586Z" fill="url(#paint78_linear_2037_576091)"/>
<path d="M150.061 67.4141L148.703 74.0852L152.9 76.8515L151.686 78.1077L156.879 81.879L163.619 78.7358L161.851 76.6003L166.602 74.2109L164.392 66.043L150.061 67.4141Z" fill="#CAE6F2"/>
<path d="M151.398 68.624C151.398 68.624 156.235 81.7525 156.869 81.8728C157.502 81.9931 162.504 67.293 162.504 67.293L151.398 68.624Z" fill="url(#paint79_linear_2037_576091)"/>
<path d="M164.804 82.0782V82.2336H164.97V82.3006H164.804V82.5363H164.727V82.0059H164.986V82.0755H164.804V82.0782Z" fill="#223F99"/>
<path d="M165.199 82.5517C165.175 82.5517 165.151 82.5464 165.137 82.541V82.7045H165.062V82.1713C165.089 82.1579 165.14 82.1445 165.191 82.1445C165.308 82.1445 165.372 82.2222 165.372 82.3481C165.372 82.466 165.311 82.5517 165.199 82.5517ZM165.191 82.2062C165.169 82.2062 165.148 82.2115 165.137 82.2169V82.4794C165.148 82.4848 165.172 82.4875 165.191 82.4875C165.26 82.4875 165.295 82.4285 165.295 82.3455C165.297 82.2597 165.26 82.2062 165.191 82.2062Z" fill="#223F99"/>
<path d="M165.567 82.5456C165.5 82.5456 165.465 82.5054 165.465 82.4304V82.2054H165.414V82.1464H165.465V82.0554L165.54 82.0312V82.1464H165.615V82.2054H165.54V82.4251C165.54 82.4599 165.561 82.476 165.591 82.476C165.599 82.476 165.61 82.4733 165.618 82.4706V82.5376C165.604 82.5429 165.586 82.5456 165.567 82.5456Z" fill="#223F99"/>
<path d="M166.137 82.5412L166.067 82.3724C166.051 82.3375 166.027 82.3161 165.99 82.3161H165.945V82.5412H165.867V82.0295C165.905 82.0107 165.958 82 166.009 82C166.129 82 166.19 82.0616 166.19 82.1554C166.19 82.2357 166.142 82.2759 166.083 82.2893V82.292C166.11 82.3054 166.129 82.3322 166.142 82.367L166.217 82.5412H166.137ZM166.011 82.067C165.987 82.067 165.961 82.0723 165.945 82.0777V82.2572H166.003C166.075 82.2572 166.115 82.2304 166.115 82.1607C166.115 82.1018 166.083 82.067 166.011 82.067Z" fill="#223F99"/>
<path d="M166.588 82.3409L166.34 82.3784C166.348 82.4506 166.391 82.4854 166.455 82.4854C166.492 82.4854 166.532 82.4747 166.559 82.4613L166.58 82.5202C166.551 82.5363 166.5 82.547 166.45 82.547C166.332 82.547 166.266 82.4667 166.266 82.3409C166.266 82.2204 166.33 82.1348 166.434 82.1348C166.53 82.1348 166.588 82.2017 166.588 82.3088C166.588 82.3195 166.588 82.3302 166.588 82.3409ZM166.434 82.1963C166.375 82.1963 166.338 82.2445 166.335 82.3248L166.516 82.2981C166.516 82.2285 166.482 82.1963 166.434 82.1963Z" fill="#223F99"/>
<path d="M166.786 82.5456C166.719 82.5456 166.684 82.5054 166.684 82.4304V82.2054H166.633V82.1464H166.684V82.0554L166.759 82.0312V82.1464H166.834V82.2054H166.759V82.4251C166.759 82.4599 166.78 82.476 166.81 82.476C166.818 82.476 166.828 82.4733 166.836 82.4706V82.5376C166.823 82.5429 166.804 82.5456 166.786 82.5456Z" fill="#223F99"/>
<path d="M167.058 82.5541C166.952 82.5541 166.898 82.5086 166.898 82.4309C166.898 82.3212 167.01 82.3025 167.122 82.2944V82.2703C167.122 82.2195 167.09 82.2034 167.042 82.2034C167.008 82.2034 166.965 82.2141 166.938 82.2275L166.92 82.1713C166.949 82.1579 167 82.1445 167.05 82.1445C167.138 82.1445 167.194 82.182 167.194 82.2784V82.5273C167.165 82.5434 167.109 82.5541 167.058 82.5541ZM167.12 82.348C167.042 82.3533 166.968 82.3587 166.968 82.4283C166.968 82.4711 166.997 82.4952 167.056 82.4952C167.08 82.4952 167.109 82.4898 167.12 82.4845V82.348Z" fill="#223F99"/>
<path d="M167.319 82.0715C167.295 82.0715 167.273 82.0501 167.273 82.026C167.273 82.0019 167.295 81.9805 167.319 81.9805C167.343 81.9805 167.365 82.0019 167.365 82.026C167.365 82.0501 167.343 82.0715 167.319 82.0715ZM167.279 82.5377V82.1412H167.356V82.5377H167.279Z" fill="#223F99"/>
<path d="M167.453 82.5395V81.9648H167.531V82.5395H167.453Z" fill="#223F99"/>
<path d="M164.086 82.8504C164.086 82.7857 164.135 82.7344 164.197 82.7344C164.259 82.7344 164.307 82.7857 164.307 82.8504C164.307 82.9152 164.259 82.9665 164.197 82.9665C164.135 82.9665 164.086 82.9152 164.086 82.8504ZM164.278 82.8504C164.278 82.7965 164.24 82.756 164.194 82.756C164.148 82.756 164.11 82.7965 164.11 82.8504C164.11 82.9044 164.148 82.9449 164.194 82.9449C164.24 82.9449 164.278 82.9044 164.278 82.8504ZM164.153 82.783H164.199C164.229 82.783 164.245 82.7938 164.245 82.8208C164.245 82.8424 164.232 82.8531 164.213 82.8558L164.245 82.9125H164.221L164.189 82.8558H164.175V82.9125H164.151V82.783H164.153ZM164.175 82.8396H164.197C164.21 82.8396 164.221 82.837 164.221 82.8208C164.221 82.8046 164.207 82.8019 164.197 82.8019H164.175V82.8396Z" fill="#08509F"/>
<path d="M161.929 81.7227C161.767 81.7227 161.628 81.8349 161.58 81.9899C161.58 81.9926 161.578 81.998 161.578 82.0006L161.57 82.0327L161.367 82.9682H161.881C162.036 82.9682 162.166 82.8666 162.214 82.7223L162.233 82.6341L162.43 81.7253H161.929V81.7227Z" fill="#08509F"/>
<path d="M162.901 81.4102C162.733 81.4102 162.592 81.5304 162.549 81.6935C162.547 81.7068 162.544 81.7175 162.541 81.7309L162.203 83.2784H162.704C162.874 83.2784 163.018 83.1528 163.058 82.9844L163.402 81.4102H162.901Z" fill="#F27123"/>
<path d="M163.734 81.7227C163.577 81.7227 163.444 81.8269 163.39 81.9739C163.388 81.9819 163.38 82.0113 163.38 82.0113L163.172 82.9682H163.673C163.846 82.9682 163.989 82.8425 164.029 82.6742L164.237 81.7253H163.734V81.7227Z" fill="#51B748"/>
<path d="M160.305 84.2617H160.536L161.01 85.0502V84.2617H161.213V85.419H160.994L160.507 84.6038V85.419H160.305V84.2617Z" fill="#08509F"/>
<path d="M161.964 84.9406H161.546V85.419H161.344V84.2617H161.546V84.7375H161.964V84.2617H162.167V85.419H161.964V84.9406Z" fill="#08509F"/>
<path d="M162.639 84.2603H162.844L163.233 85.4176H163.02L162.953 85.2118H162.53L162.463 85.4176H162.25L162.639 84.2603ZM162.452 83.9102H162.641L162.812 84.1801H162.676L162.452 83.9102ZM162.599 85.006H162.886L162.743 84.5677L162.599 85.006Z" fill="#08509F"/>
<path d="M163.957 84.4675H163.664V84.2617H164.452V84.4675H164.159V85.419H163.957V84.4675Z" fill="#08509F"/>
<path d="M165.175 84.9406H164.757V85.419H164.555V84.2617H164.757V84.7375H165.175V84.2617H165.378V85.419H165.175V84.9406Z" fill="#08509F"/>
<path d="M165.902 85.419C165.846 85.419 165.793 85.411 165.745 85.3923C165.697 85.3736 165.654 85.3495 165.62 85.3148C165.585 85.28 165.556 85.2373 165.537 85.1865C165.518 85.1357 165.508 85.0769 165.508 85.0101V84.2617H165.71V85.0208C165.71 85.0502 165.716 85.0742 165.724 85.101C165.734 85.125 165.747 85.1464 165.763 85.1651C165.779 85.1838 165.801 85.1972 165.822 85.2079C165.846 85.2186 165.87 85.2239 165.897 85.2239C165.923 85.2239 165.947 85.2186 165.971 85.2079C165.995 85.1972 166.014 85.1838 166.032 85.1651C166.051 85.1464 166.064 85.125 166.072 85.101C166.083 85.0769 166.088 85.0502 166.088 85.0208V84.2617H166.291V85.0101C166.291 85.0769 166.28 85.1357 166.261 85.1865C166.243 85.2373 166.214 85.28 166.179 85.3148C166.144 85.3495 166.102 85.3762 166.054 85.3923C166.011 85.4083 165.958 85.419 165.902 85.419Z" fill="#08509F"/>
<path d="M166.942 85.4213C166.865 85.4213 166.79 85.4052 166.724 85.3758C166.657 85.3464 166.596 85.3037 166.545 85.2529C166.495 85.1994 166.455 85.138 166.425 85.0685C166.396 84.999 166.383 84.9215 166.383 84.8413C166.383 84.7611 166.396 84.6863 166.425 84.6141C166.455 84.5446 166.495 84.4831 166.545 84.4297C166.596 84.3762 166.654 84.3362 166.724 84.3041C166.793 84.272 166.865 84.2586 166.942 84.2586C167.019 84.2586 167.094 84.2747 167.16 84.3041C167.227 84.3335 167.288 84.3762 167.339 84.4297C167.389 84.4831 167.429 84.5446 167.459 84.6141C167.488 84.6836 167.501 84.7584 167.501 84.8413C167.501 84.9215 167.488 84.9963 167.459 85.0685C167.429 85.138 167.389 85.1994 167.339 85.2529C167.288 85.3037 167.23 85.3464 167.16 85.3758C167.091 85.4052 167.019 85.4213 166.942 85.4213ZM166.942 85.2075C166.993 85.2075 167.038 85.1968 167.083 85.1781C167.126 85.1593 167.166 85.1326 167.198 85.1006C167.23 85.0685 167.256 85.0284 167.275 84.983C167.294 84.9375 167.302 84.8894 167.302 84.8386C167.302 84.7878 167.294 84.7397 167.275 84.6943C167.256 84.6489 167.23 84.6114 167.198 84.5767C167.166 84.5446 167.128 84.5179 167.083 84.4992C167.041 84.4805 166.993 84.4698 166.942 84.4698C166.891 84.4698 166.846 84.4805 166.801 84.4992C166.758 84.5179 166.721 84.5446 166.689 84.5767C166.657 84.6088 166.633 84.6489 166.615 84.6943C166.596 84.7397 166.588 84.7878 166.588 84.8386C166.588 84.8894 166.596 84.9375 166.615 84.983C166.633 85.0284 166.657 85.0658 166.689 85.1006C166.721 85.1326 166.758 85.1593 166.801 85.1781C166.846 85.1968 166.891 85.2075 166.942 85.2075ZM166.881 83.9112H167.006L167.184 84.1811H167.033L166.945 84.0395L166.857 84.1811H166.705L166.881 83.9112ZM167.272 83.7188H167.461L167.238 83.9887H167.102L167.272 83.7188Z" fill="#08509F"/>
<path d="M168.124 85.4217C168.042 85.4217 167.965 85.4056 167.895 85.3762C167.826 85.3468 167.768 85.3041 167.717 85.2533C167.669 85.1999 167.629 85.1384 167.602 85.0689C167.576 84.9994 167.562 84.9219 167.562 84.8417C167.562 84.7562 167.576 84.6787 167.605 84.6092C167.634 84.5397 167.674 84.4782 167.725 84.4248C167.776 84.374 167.834 84.3339 167.903 84.3045C167.973 84.2751 168.045 84.2617 168.124 84.2617C168.175 84.2617 168.226 84.2697 168.271 84.2831C168.319 84.2965 168.361 84.3178 168.404 84.3419C168.447 84.366 168.484 84.398 168.516 84.4328C168.551 84.4675 168.577 84.5076 168.601 84.5531L168.423 84.668C168.391 84.6092 168.351 84.5611 168.3 84.5263C168.252 84.4916 168.191 84.4755 168.122 84.4755C168.071 84.4755 168.023 84.4862 167.978 84.5049C167.935 84.5237 167.895 84.5504 167.863 84.5825C167.831 84.6145 167.808 84.6546 167.789 84.7001C167.77 84.7455 167.762 84.7936 167.762 84.8444C167.762 84.8952 167.77 84.9433 167.789 84.986C167.808 85.0315 167.831 85.0689 167.863 85.101C167.895 85.133 167.933 85.1598 167.975 85.1785C168.018 85.1972 168.066 85.2079 168.116 85.2079C168.191 85.2079 168.258 85.1892 168.308 85.1491C168.361 85.109 168.401 85.0609 168.431 84.9994L168.617 85.0983C168.593 85.1464 168.564 85.1892 168.529 85.2293C168.495 85.2693 168.457 85.3041 168.415 85.3335C168.372 85.3629 168.327 85.3843 168.276 85.4003C168.231 85.4137 168.178 85.4217 168.124 85.4217Z" fill="#08509F"/>
<path d="M158.977 86.2148H159.248V87.4844H159.781V87.7597H158.977V86.2148Z" fill="#08509F"/>
<path d="M160.543 87.7611C160.439 87.7611 160.343 87.7397 160.252 87.6997C160.162 87.6596 160.082 87.6034 160.015 87.5339C159.949 87.4645 159.895 87.3816 159.855 87.2881C159.818 87.1945 159.797 87.093 159.797 86.986C159.797 86.8791 159.816 86.7776 159.855 86.684C159.893 86.5905 159.946 86.5076 160.015 86.4381C160.082 86.3686 160.162 86.3125 160.252 86.2724C160.343 86.2323 160.439 86.2109 160.543 86.2109C160.646 86.2109 160.742 86.2323 160.833 86.2724C160.923 86.3125 161.003 86.3686 161.07 86.4381C161.136 86.5076 161.19 86.5905 161.23 86.684C161.267 86.7776 161.288 86.8791 161.288 86.986C161.288 87.093 161.27 87.1945 161.23 87.2881C161.192 87.3816 161.139 87.4645 161.07 87.5339C161.003 87.6034 160.923 87.6596 160.833 87.6997C160.742 87.7397 160.646 87.7611 160.543 87.7611ZM160.543 87.4778C160.609 87.4778 160.67 87.4645 160.729 87.4404C160.788 87.4137 160.838 87.3789 160.881 87.3362C160.923 87.2907 160.958 87.2399 160.982 87.1811C161.006 87.1223 161.019 87.0582 161.019 86.9887C161.019 86.9219 161.006 86.8577 160.982 86.7963C160.958 86.7375 160.923 86.684 160.881 86.6413C160.838 86.5958 160.788 86.5611 160.729 86.537C160.67 86.5103 160.609 86.4996 160.543 86.4996C160.476 86.4996 160.415 86.513 160.356 86.537C160.298 86.5637 160.247 86.5985 160.204 86.6413C160.162 86.6867 160.127 86.7375 160.103 86.7963C160.079 86.8551 160.066 86.9192 160.066 86.9887C160.066 87.0555 160.079 87.1197 160.103 87.1811C160.127 87.2399 160.162 87.2934 160.204 87.3362C160.247 87.3816 160.298 87.4164 160.356 87.4404C160.415 87.4645 160.476 87.4778 160.543 87.4778Z" fill="#08509F"/>
<path d="M161.409 86.2148H161.715L162.346 87.2652V86.2148H162.618V87.7597H162.328L161.678 86.6746V87.7597H161.406V86.2148H161.409Z" fill="#08509F"/>
<path d="M163.506 87.7624C163.394 87.7624 163.291 87.741 163.197 87.7009C163.104 87.6608 163.024 87.6047 162.958 87.5325C162.891 87.4603 162.841 87.3802 162.803 87.2866C162.766 87.1931 162.75 87.0942 162.75 86.9899C162.75 86.883 162.769 86.7815 162.806 86.6879C162.843 86.5944 162.894 86.5115 162.96 86.442C163.027 86.3725 163.104 86.3164 163.195 86.2763C163.285 86.2362 163.386 86.2148 163.493 86.2148C163.57 86.2148 163.639 86.2229 163.706 86.2416C163.773 86.2603 163.834 86.287 163.89 86.3218C163.946 86.3565 163.996 86.3966 164.042 86.4447C164.087 86.4928 164.124 86.5436 164.153 86.5997L163.914 86.7387C163.869 86.6585 163.81 86.5971 163.741 86.557C163.671 86.5169 163.589 86.4955 163.493 86.4955C163.426 86.4955 163.363 86.5088 163.304 86.5356C163.245 86.5623 163.195 86.5971 163.152 86.6425C163.11 86.6879 163.075 86.7387 163.051 86.8002C163.027 86.859 163.016 86.9231 163.016 86.9926C163.016 87.0621 163.027 87.1263 163.051 87.1851C163.075 87.2439 163.11 87.2973 163.152 87.3428C163.195 87.3882 163.248 87.4229 163.307 87.4497C163.368 87.4764 163.432 87.4871 163.501 87.4871C163.61 87.4871 163.701 87.4577 163.773 87.3962C163.845 87.3347 163.895 87.2545 163.922 87.153H163.456V86.8777H164.212V86.9926C164.212 87.0969 164.196 87.1957 164.161 87.2893C164.127 87.3828 164.082 87.4657 164.018 87.5352C163.956 87.6047 163.882 87.6608 163.794 87.7036C163.714 87.741 163.616 87.7624 163.506 87.7624Z" fill="#08509F"/>
<path d="M165.553 87.7611C165.441 87.7611 165.34 87.7397 165.247 87.6997C165.154 87.6596 165.076 87.6034 165.01 87.5339C164.946 87.4645 164.895 87.3816 164.858 87.2881C164.821 87.1945 164.805 87.093 164.805 86.986C164.805 86.8738 164.823 86.7696 164.863 86.676C164.901 86.5825 164.954 86.4996 165.023 86.4301C165.09 86.3606 165.17 86.3072 165.26 86.2697C165.351 86.2323 165.449 86.2109 165.556 86.2109C165.625 86.2109 165.689 86.219 165.753 86.2377C165.817 86.2564 165.875 86.2831 165.931 86.3152C165.987 86.3499 166.035 86.39 166.08 86.4381C166.126 86.4862 166.163 86.5397 166.195 86.5985L165.958 86.7508C165.915 86.6707 165.862 86.6092 165.795 86.5611C165.731 86.5156 165.649 86.4916 165.556 86.4916C165.486 86.4916 165.423 86.5049 165.364 86.529C165.305 86.553 165.255 86.5878 165.212 86.6332C165.17 86.6787 165.138 86.7295 165.114 86.7883C165.09 86.8471 165.079 86.9112 165.079 86.9807C165.079 87.0475 165.09 87.1117 165.114 87.1705C165.138 87.2293 165.17 87.28 165.212 87.3255C165.255 87.3709 165.303 87.403 165.361 87.4297C165.42 87.4538 165.481 87.4671 165.55 87.4671C165.652 87.4671 165.737 87.4404 165.806 87.3896C165.875 87.3388 165.931 87.272 165.968 87.1918L166.216 87.3228C166.184 87.387 166.144 87.4457 166.099 87.4992C166.054 87.5527 166.003 87.5981 165.945 87.6355C165.889 87.6729 165.827 87.7023 165.761 87.7237C165.694 87.7504 165.625 87.7611 165.553 87.7611Z" fill="#08509F"/>
<path d="M167.143 87.1236H166.584V87.7597H166.312V86.2148H166.584V86.8483H167.143V86.2148H167.415V87.7597H167.143V87.1236Z" fill="#08509F"/>
<path d="M168.04 86.2131H168.314L168.834 87.758H168.551L168.461 87.4827H167.896L167.806 87.758H167.523L168.04 86.2131ZM168.091 85.748H168.258L168.495 86.1089H168.293L168.176 85.9218L168.059 86.1089H167.856L168.091 85.748ZM167.987 87.2074H168.37L168.179 86.622L167.987 87.2074Z" fill="#08509F"/>
<path d="M169.387 87.7597C169.312 87.7597 169.24 87.749 169.176 87.725C169.112 87.7009 169.056 87.6661 169.009 87.6207C168.961 87.5753 168.923 87.5165 168.899 87.4497C168.873 87.3802 168.859 87.3026 168.859 87.2144V86.2148H169.131V87.2278C169.131 87.2652 169.136 87.3 169.15 87.332C169.163 87.3641 169.179 87.3935 169.203 87.4176C169.227 87.4416 169.254 87.4603 169.283 87.4737C169.312 87.4871 169.347 87.4951 169.381 87.4951C169.416 87.4951 169.451 87.4871 169.483 87.4737C169.512 87.4603 169.541 87.4416 169.562 87.4176C169.586 87.3935 169.605 87.3668 169.618 87.332C169.632 87.3 169.637 87.2652 169.637 87.2278V86.2148H169.909V87.2144C169.909 87.3026 169.895 87.3828 169.869 87.4497C169.842 87.5191 169.805 87.5753 169.76 87.6207C169.714 87.6661 169.658 87.7009 169.594 87.725C169.53 87.7463 169.461 87.7597 169.387 87.7597Z" fill="#08509F"/>
<path d="M145.733 93.5199C145.687 93.4771 145.647 93.4237 145.605 93.3756C145.757 93.5546 145.578 93.3328 145.541 93.2767C145.48 93.1804 145.421 93.0816 145.368 92.98C145.211 92.6887 145.144 92.5229 145.021 92.1595C144.878 91.7291 144.768 91.2828 144.691 90.8311C144.334 88.7277 144.276 86.0362 145.804 84.4833C146.795 83.4784 148.329 83.1389 149.466 83.759C149.685 83.8766 149.855 84.037 149.991 84.2508C150.191 84.5635 150.311 84.8361 150.433 85.1889C150.723 86.0362 150.875 86.9342 150.971 87.835C151.085 88.9014 151.123 89.9812 151.083 91.0556C151.069 91.4485 151.046 91.7853 150.995 92.1995C150.974 92.3626 150.95 92.5256 150.918 92.6887C150.904 92.7528 150.888 92.8143 150.875 92.8757C150.838 93.0602 150.912 92.7876 150.854 92.9399C150.564 93.715 151.591 94.3057 151.884 93.5306C152.14 92.849 152.18 92.0766 152.22 91.3496C152.276 90.3179 152.257 89.2782 152.169 88.2492C152.082 87.1855 151.927 86.103 151.626 85.0874C151.381 84.2642 151.016 83.3875 150.385 82.861C149.019 81.7251 146.958 82.0271 145.607 83.0187C143.575 84.5127 143.216 87.2657 143.416 89.8101C143.514 91.0503 143.754 92.2931 144.262 93.4023C144.441 93.7925 144.673 94.2175 144.974 94.5035C145.541 95.0434 146.305 94.0598 145.733 93.5199Z" fill="#607070"/>
<path d="M144.558 94.5911C144.324 94.0833 144.3 93.1505 144.928 92.8993C145.557 92.6507 146.553 93.514 146.588 94.1234C146.622 94.7355 145.898 95.5747 145.397 95.3475C144.896 95.1203 144.558 94.5911 144.558 94.5911Z" fill="#3A94D1"/>
<path d="M151.807 94.0733C151.983 93.5361 151.905 92.606 151.256 92.4483C150.606 92.2906 149.711 93.2876 149.743 93.8996C149.775 94.5117 150.587 95.2413 151.059 94.9447C151.53 94.648 151.807 94.0733 151.807 94.0733Z" fill="#3A94D1"/>
<path d="M148.2 82.2588C148.333 80.4707 148.53 78.6826 148.767 76.9186C149.14 74.1497 149.572 70.9931 150.634 68.6331C151.082 67.6388 150.131 66.6366 149.686 67.6255C148.818 69.5525 148.368 71.9633 148 74.2165C147.643 76.3948 147.377 78.6105 147.169 80.8288C147.127 81.2805 147.087 81.7322 147.052 82.1839C146.959 83.3867 148.11 83.4588 148.2 82.2588Z" fill="#607070"/>
<path d="M150.965 87.8315C151.08 88.8979 151.117 89.9777 151.077 91.0522C151.064 91.4451 151.04 91.7818 150.989 92.1961C150.968 92.3592 150.944 92.5222 150.912 92.6852C150.899 92.7494 150.883 92.8108 150.869 92.8723C150.867 92.883 150.867 92.891 150.864 92.8964C150.861 92.9044 150.856 92.9151 150.848 92.9365C150.558 93.7116 151.586 94.3022 151.879 93.5271C152.134 92.8456 152.174 92.0732 152.214 91.3462C152.27 90.3145 152.251 89.2748 152.164 88.2458C152.137 87.9197 152.102 87.5937 152.06 87.2676L150.925 87.4894C150.939 87.6017 150.952 87.7166 150.965 87.8315Z" fill="#509FD7"/>
<path d="M143.367 88.9645C143.375 89.2478 143.388 89.5285 143.41 89.8091C143.508 91.0493 143.748 92.2921 144.257 93.4013C144.435 93.7915 144.667 94.2165 144.968 94.5025C145.538 95.0397 146.302 94.0588 145.729 93.5189C145.684 93.4761 145.644 93.4227 145.602 93.3746C145.753 93.5536 145.575 93.3318 145.538 93.2757C145.476 93.1795 145.418 93.0806 145.365 92.979C145.207 92.6877 145.141 92.522 145.018 92.1585C144.875 91.7282 144.765 91.2818 144.688 90.8301C144.576 90.1753 144.496 89.4643 144.48 88.748L143.367 88.9645Z" fill="#509FD7"/>
<path d="M171.699 67.0018C171.699 67.0018 181.1 72.134 182.604 72.5466C182.604 72.5466 188.178 78.7277 186.811 82.6923L174.481 81.0784C174.481 81.0784 175.779 76.7388 167.888 71.2225C167.894 71.221 169.055 67.519 171.699 67.0018Z" fill="white"/>
<path d="M137.971 42.5709C138.455 33.8978 134.787 26.6388 129.78 26.3575C124.772 26.0761 120.321 32.8789 119.837 41.5519C119.353 50.225 123.02 57.484 128.028 57.7653C133.035 58.0467 137.487 51.2439 137.971 42.5709Z" fill="white"/>
<path d="M129.84 26.348C134.844 26.6848 138.484 33.9894 137.968 42.6625C137.922 43.4215 137.845 44.1646 137.744 44.8915L120.383 37.4399C121.808 30.7821 125.637 26.0647 129.84 26.348Z" fill="url(#paint80_linear_2037_576091)"/>
<path d="M134.907 42.5509C135.416 33.8788 133.656 26.7202 130.976 26.5618C128.297 26.4034 125.712 33.3051 125.203 41.9773C124.694 50.6495 126.454 57.8081 129.133 57.9665C131.813 58.1249 134.398 51.2231 134.907 42.5509Z" fill="#084B59"/>
<path d="M134.024 42.4904C134.533 33.8182 132.773 26.6596 130.094 26.5012C127.414 26.3428 124.829 33.2446 124.32 41.9168C123.811 50.5889 125.571 57.7476 128.25 57.906C130.93 58.0644 133.515 51.1626 134.024 42.4904Z" fill="#17156D"/>
<path d="M201.482 49.6889C202.501 41.0687 198.945 33.5588 193.54 32.9153C188.134 32.2717 182.926 38.7381 181.907 47.3584C180.889 55.9787 184.444 63.4885 189.85 64.1321C195.255 64.7756 200.463 58.3092 201.482 49.6889Z" fill="white"/>
<path d="M193.694 32.9338C188.304 32.1667 183.047 38.5252 181.949 47.1368C181.854 47.8905 181.792 48.6362 181.766 49.3712L201.654 45.8779C201.401 39.0437 198.221 33.5779 193.694 32.9338Z" fill="url(#paint81_linear_2037_576091)"/>
<path d="M195.677 49.138C196.758 40.5247 195.291 33.2459 192.4 32.8804C189.509 32.5149 186.289 39.201 185.208 47.8144C184.127 56.4277 185.594 63.7065 188.485 64.072C191.376 64.4375 194.596 57.7514 195.677 49.138Z" fill="#084B59"/>
<path d="M196.63 49.2747C197.711 40.6614 196.244 33.3826 193.353 33.0171C190.462 32.6516 187.242 39.3377 186.161 47.9511C185.08 56.5644 186.547 63.8432 189.438 64.2087C192.329 64.5742 195.549 57.8881 196.63 49.2747Z" fill="#17156D"/>
<path d="M150.688 11.8533C130.928 13.0267 127.641 29.7153 126.208 46.7621C124.773 63.8088 139.064 70.3624 160.262 71.2872C181.461 72.2119 190.492 68.2509 192.846 57.6455C195.2 47.0427 196.279 29.4373 188.143 21.2748C181.205 14.3176 164.976 11.0034 150.688 11.8533Z" fill="url(#paint82_linear_2037_576091)"/>
<path d="M163.609 69.2601L153.183 68.6881C139.881 67.9584 129.55 55.8295 130.227 41.7308C130.903 27.608 142.363 16.6524 155.686 17.3821L166.113 17.9541C179.415 18.6837 189.745 30.8126 189.069 44.9114C188.393 59.0342 176.936 69.9897 163.609 69.2601Z" fill="url(#paint83_linear_2037_576091)"/>
<path opacity="0.34" d="M135.062 53.8631C133.51 47.7184 135.243 32.5105 139.39 27.7878C143.536 23.065 152.615 28.5255 160.796 28.774C168.977 29.0226 173.358 27.5953 177.065 27.9535C180.773 28.3143 185.838 30.9844 184.866 44.6287C183.894 58.2731 181.484 64.5808 164.607 64.0329C148.066 63.4983 136.844 60.9031 135.062 53.8631Z" fill="#EDECED"/>
<path d="M135.008 54.908C133.455 48.7634 135.189 33.5554 139.335 28.8327C143.482 24.11 152.56 29.5704 160.742 29.8189C168.923 30.0675 173.304 28.6403 177.011 28.9984C180.718 29.3566 185.783 32.0293 184.811 45.6737C183.839 59.318 181.429 65.6257 164.553 65.0778C148.012 64.5433 136.789 61.948 135.008 54.908Z" fill="url(#paint84_linear_2037_576091)"/>
<path d="M137.277 53.2958C135.823 48.1428 137.306 35.4259 141.048 31.5049C144.79 27.5814 153.088 32.2186 160.534 32.4832C167.981 32.7505 171.957 31.5851 175.334 31.9139C178.708 32.2426 183.334 34.5145 182.54 45.9271C181.744 57.3397 179.589 62.5997 164.226 62.0223C149.171 61.453 138.942 59.2026 137.277 53.2958Z" fill="white"/>
<path d="M185.211 23.772C187.091 25.397 187.688 27.431 188.305 26.6425C188.923 25.854 187.901 23.8949 186.02 22.2699C184.14 20.6449 182.114 19.966 181.496 20.7544C180.878 21.5429 183.331 22.1469 185.211 23.772Z" fill="white"/>
<path d="M189.173 29.3778C189.642 29.3686 190.015 28.9616 190.005 28.4686C189.996 27.9757 189.608 27.5836 189.138 27.5927C188.669 27.6019 188.297 28.009 188.306 28.5019C188.316 28.9948 188.704 29.387 189.173 29.3778Z" fill="white"/>
<path d="M132.167 57.9933C130.718 55.9299 130.609 53.8051 129.826 54.4091C129.046 55.0132 129.586 57.1781 131.035 59.2414C132.484 61.3048 134.292 62.4862 135.072 61.8821C135.855 61.2781 133.616 60.0566 132.167 57.9933Z" fill="white"/>
<path d="M129.479 53.3106C129.948 53.2821 130.303 52.86 130.273 52.3678C130.244 51.8757 129.84 51.4999 129.371 51.5284C128.903 51.5569 128.548 51.979 128.577 52.4712C128.607 52.9633 129.011 53.3391 129.479 53.3106Z" fill="white"/>
<path d="M176.374 50.518C176.425 49.65 175.348 48.8805 173.97 48.7991C172.591 48.7177 171.432 49.3554 171.381 50.2233C171.33 51.0913 172.407 51.8609 173.786 51.9422C175.164 52.0236 176.323 51.3859 176.374 50.518Z" fill="#F5A1AA"/>
<path d="M147.405 47.6762C147.456 46.8082 146.38 46.0387 145.001 45.9573C143.622 45.8759 142.463 46.5136 142.412 47.3816C142.362 48.2495 143.438 49.0191 144.817 49.1004C146.196 49.1818 147.354 48.5442 147.405 47.6762Z" fill="#F5A1AA"/>
<path d="M152.452 41.6156C152.671 39.212 152.021 37.1877 151 37.0942C149.979 37.0007 148.974 38.8733 148.755 41.2769C148.537 43.6804 149.187 45.7047 150.208 45.7982C151.229 45.8918 152.234 44.0191 152.452 41.6156Z" fill="#132348"/>
<path d="M156.021 50.8288C157.18 51.3179 159.124 51.5478 162.253 50.5001C162.94 50.2702 164.927 48.6131 164.884 49.2439C164.711 51.7482 163.209 58.9433 159.276 58.8738C159.276 58.8738 154.852 59.419 154.509 51.6894C154.477 50.9999 155.321 50.5348 156.021 50.8288Z" fill="#E26D70"/>
<path d="M173.874 38.7168L166.76 43.2471C166.398 43.4769 166.183 43.8993 166.196 44.3456C166.212 44.8641 166.638 45.2597 167.125 45.2116L175.562 44.3509C175.868 44.3189 176.108 44.0623 176.135 43.7389C176.169 43.3246 175.842 42.9771 175.45 43.0172L168.534 43.7255L174.223 39.377L174.289 38.8905L173.874 38.7168Z" fill="#132348"/>
<path d="M175.995 99.7147C175.831 99.8823 175.533 99.8814 175.262 99.7152L158.267 89.2485C157.88 89.0095 157.704 88.5363 157.904 88.2661L171.091 70.5027C171.286 70.2405 171.746 70.2977 172.058 70.6244L187.598 86.8977C187.866 87.1794 187.924 87.5562 187.728 87.758L175.995 99.7147Z" fill="#6AA2E8"/>
<path opacity="0.81" d="M175.374 98.9269L159.947 89.2855L172.901 72.5381L186.94 87.1558L175.374 98.9269Z" stroke="white" stroke-width="0.942814" stroke-miterlimit="10"/>
<path d="M182.489 69.1934C182.489 69.1934 185.724 71.675 186.624 74.4411C186.624 74.4411 189.339 81.7941 186.865 85.804L175.83 79.5028C175.83 79.5028 177.923 76.0659 175.259 70.9116C175.265 70.9123 180.016 69.7647 182.489 69.1934Z" fill="white"/>
<path d="M186.718 85.4283L177.095 80.141C175.636 82.1407 175.499 84.6441 174.265 86.2993C174.07 86.562 173.386 86.1626 171.916 87.023C171.97 86.9694 171.841 87.0668 171.916 87.023C170.989 87.9161 170.14 88.0806 168.854 88.2423C168.296 88.717 168.384 89.5935 169.047 89.8699C169.392 90.0133 169.883 90.1215 170.574 90.1496C170.73 90.1566 170.78 90.3458 170.651 90.4287L168.368 91.8747C167.86 92.2207 167.588 92.7978 167.656 93.3805C167.766 94.3285 167.993 95.6916 168.406 96.0915C169.279 96.9426 170.702 96.888 173.661 95.9295C173.688 95.9196 176.22 95.1111 179.622 92.9642C179.943 92.7614 179.784 91.4933 180.104 91.2711C182.431 89.6704 185.512 87.99 186.718 85.4283Z" fill="url(#paint85_linear_2037_576091)"/>
</g>
<defs>
<linearGradient id="paint0_linear_2037_576091" x1="86.6938" y1="27.4922" x2="86.6938" y2="135.792" gradientUnits="userSpaceOnUse">
<stop offset="0.440192" stop-color="#D9D9D9"/>
<stop offset="1" stop-color="#D9D9D9" stop-opacity="0"/>
</linearGradient>
<linearGradient id="paint1_linear_2037_576091" x1="89.016" y1="122.993" x2="113.316" y2="122.993" gradientUnits="userSpaceOnUse">
<stop offset="0.1994" stop-color="#A8D5FE"/>
<stop offset="0.3818" stop-color="#D3EAFE"/>
<stop offset="0.5085" stop-color="#CEE7FE"/>
<stop offset="0.6602" stop-color="#BFDEFE"/>
<stop offset="0.8241" stop-color="#A7D0FE"/>
<stop offset="0.9821" stop-color="#89BEFE"/>
</linearGradient>
<linearGradient id="paint2_linear_2037_576091" x1="93.3048" y1="126.905" x2="100.278" y2="126.905" gradientUnits="userSpaceOnUse">
<stop stop-color="#ECF5FE"/>
<stop offset="0.7055" stop-color="#C9E1FE"/>
</linearGradient>
<linearGradient id="paint3_linear_2037_576091" x1="90.9876" y1="121.238" x2="97.4817" y2="125.709" gradientUnits="userSpaceOnUse">
<stop offset="0.5754" stop-color="#718ED1"/>
<stop offset="0.8213" stop-color="#AAD7FE"/>
<stop offset="0.9742" stop-color="#718ED1"/>
</linearGradient>
<linearGradient id="paint4_linear_2037_576091" x1="93.297" y1="126.903" x2="99.9508" y2="126.903" gradientUnits="userSpaceOnUse">
<stop stop-color="#ECF5FE"/>
<stop offset="0.7055" stop-color="#C9E1FE"/>
</linearGradient>
<linearGradient id="paint5_linear_2037_576091" x1="100.511" y1="122.692" x2="93.1921" y2="126.631" gradientUnits="userSpaceOnUse">
<stop offset="0.1994" stop-color="#A8D5FE"/>
<stop offset="0.3818" stop-color="#D3EAFE"/>
<stop offset="0.5085" stop-color="#CEE7FE"/>
<stop offset="0.6602" stop-color="#BFDEFE"/>
<stop offset="0.8241" stop-color="#A7D0FE"/>
<stop offset="0.9821" stop-color="#89BEFE"/>
</linearGradient>
<linearGradient id="paint6_linear_2037_576091" x1="100.063" y1="128.335" x2="93.4357" y2="132.168" gradientUnits="userSpaceOnUse">
<stop offset="0.1994" stop-color="#A8D5FE"/>
<stop offset="0.3818" stop-color="#D3EAFE"/>
<stop offset="0.5085" stop-color="#CEE7FE"/>
<stop offset="0.6602" stop-color="#BFDEFE"/>
<stop offset="0.8241" stop-color="#A7D0FE"/>
<stop offset="0.9821" stop-color="#89BEFE"/>
</linearGradient>
<linearGradient id="paint7_linear_2037_576091" x1="68.6639" y1="54.3936" x2="49.8226" y2="67.0275" gradientUnits="userSpaceOnUse">
<stop offset="0.0180256" stop-color="#C1E1FF"/>
<stop offset="0.9771" stop-color="#E0F0FF"/>
</linearGradient>
<linearGradient id="paint8_linear_2037_576091" x1="54.4899" y1="46.3802" x2="59.5265" y2="66.4297" gradientUnits="userSpaceOnUse">
<stop offset="0.3503" stop-color="#BEDDFA"/>
<stop offset="0.9771" stop-color="#E0F0FF"/>
</linearGradient>
<linearGradient id="paint9_linear_2037_576091" x1="60.4713" y1="57.3543" x2="21.6352" y2="83.3956" gradientUnits="userSpaceOnUse">
<stop offset="0.0180256" stop-color="#C1E1FF"/>
<stop offset="0.9771" stop-color="#E0F0FF"/>
</linearGradient>
<linearGradient id="paint10_linear_2037_576091" x1="31.2465" y1="40.8369" x2="41.6281" y2="82.1633" gradientUnits="userSpaceOnUse">
<stop offset="0.3503" stop-color="#BEDDFA"/>
<stop offset="0.9771" stop-color="#E0F0FF"/>
</linearGradient>
<linearGradient id="paint11_linear_2037_576091" x1="35.9711" y1="60.1055" x2="35.9711" y2="72.0723" gradientUnits="userSpaceOnUse">
<stop stop-color="#C2DFFA"/>
<stop offset="1" stop-color="#C2DFFA" stop-opacity="0"/>
</linearGradient>
<linearGradient id="paint12_linear_2037_576091" x1="17.2219" y1="51.1687" x2="32.6928" y2="108.883" gradientUnits="userSpaceOnUse">
<stop stop-color="#B5D8F9"/>
<stop offset="0.732" stop-color="#E1F1FF"/>
</linearGradient>
<linearGradient id="paint13_linear_2037_576091" x1="55.6219" y1="52.7601" x2="38.3054" y2="100.215" gradientUnits="userSpaceOnUse">
<stop offset="0.368027" stop-color="#BADAF8"/>
<stop offset="0.924183" stop-color="#DBEEFF"/>
</linearGradient>
<linearGradient id="paint14_linear_2037_576091" x1="94.3937" y1="68.2237" x2="64.786" y2="88.077" gradientUnits="userSpaceOnUse">
<stop offset="0.0180256" stop-color="#C1E1FF"/>
<stop offset="0.9771" stop-color="#E0F0FF"/>
</linearGradient>
<linearGradient id="paint15_linear_2037_576091" x1="72.1202" y1="55.6312" x2="80.035" y2="87.1375" gradientUnits="userSpaceOnUse">
<stop offset="0.3503" stop-color="#BEDDFA"/>
<stop offset="0.9771" stop-color="#E0F0FF"/>
</linearGradient>
<linearGradient id="paint16_linear_2037_576091" x1="105.851" y1="82.3779" x2="87.0101" y2="95.0119" gradientUnits="userSpaceOnUse">
<stop offset="0.0180256" stop-color="#C1E1FF"/>
<stop offset="0.9771" stop-color="#E0F0FF"/>
</linearGradient>
<linearGradient id="paint17_linear_2037_576091" x1="91.6774" y1="74.3646" x2="96.714" y2="94.414" gradientUnits="userSpaceOnUse">
<stop offset="0.3503" stop-color="#BEDDFA"/>
<stop offset="0.9771" stop-color="#E0F0FF"/>
</linearGradient>
<linearGradient id="paint18_linear_2037_576091" x1="57.3287" y1="59.8694" x2="68.3862" y2="101.12" gradientUnits="userSpaceOnUse">
<stop stop-color="#B5D8F9"/>
<stop offset="0.732" stop-color="#E1F1FF"/>
</linearGradient>
<linearGradient id="paint19_linear_2037_576091" x1="84.7787" y1="61.0068" x2="72.4021" y2="94.9245" gradientUnits="userSpaceOnUse">
<stop offset="0.368027" stop-color="#BADAF8"/>
<stop offset="0.924183" stop-color="#DBEEFF"/>
</linearGradient>
<linearGradient id="paint20_linear_2037_576091" x1="81.3349" y1="107.125" x2="95.538" y2="107.125" gradientUnits="userSpaceOnUse">
<stop offset="0.1994" stop-color="#A8CFFE"/>
<stop offset="0.4317" stop-color="#D3EAFE"/>
<stop offset="0.8422" stop-color="#9DCAFE"/>
</linearGradient>
<linearGradient id="paint21_linear_2037_576091" x1="89.7964" y1="123.726" x2="106.883" y2="126.014" gradientUnits="userSpaceOnUse">
<stop offset="0.0995" stop-color="#D3EAFE"/>
<stop offset="0.9138" stop-color="#88BAF0"/>
</linearGradient>
<linearGradient id="paint22_linear_2037_576091" x1="92.3008" y1="124.188" x2="83.3924" y2="124.188" gradientUnits="userSpaceOnUse">
<stop offset="0.1994" stop-color="#A8D0FE"/>
<stop offset="0.8422" stop-color="#84B4E8"/>
</linearGradient>
<linearGradient id="paint23_linear_2037_576091" x1="6.95314" y1="96.2664" x2="86.7062" y2="96.2664" gradientUnits="userSpaceOnUse">
<stop offset="0.1737" stop-color="#DDEFFE"/>
<stop offset="0.4317" stop-color="#FEFEFE"/>
<stop offset="0.8654" stop-color="#AAD1FE"/>
</linearGradient>
<linearGradient id="paint24_linear_2037_576091" x1="6.95422" y1="100.89" x2="86.7073" y2="100.89" gradientUnits="userSpaceOnUse">
<stop offset="0.1737" stop-color="#7BBFFF"/>
<stop offset="0.390625" stop-color="#CFE8FF"/>
<stop offset="0.915" stop-color="#61B2FD"/>
</linearGradient>
<linearGradient id="paint25_linear_2037_576091" x1="6.95314" y1="122.023" x2="86.7062" y2="122.023" gradientUnits="userSpaceOnUse">
<stop offset="0.2459" stop-color="#EBF5FE"/>
<stop offset="0.4489" stop-color="#F3F8FE"/>
<stop offset="0.8387" stop-color="#BFDBFE"/>
</linearGradient>
<linearGradient id="paint26_linear_2037_576091" x1="50.6596" y1="106.783" x2="83.3494" y2="125.299" gradientUnits="userSpaceOnUse">
<stop offset="0.5754" stop-color="#4D75D1"/>
<stop offset="0.8213" stop-color="#AAD7FE"/>
<stop offset="0.9742" stop-color="#4D75D1"/>
</linearGradient>
<linearGradient id="paint27_linear_2037_576091" x1="48.6192" y1="111.746" x2="80.3106" y2="138.104" gradientUnits="userSpaceOnUse">
<stop stop-color="#ECF5FE"/>
<stop offset="0.7055" stop-color="#C9E1FE"/>
</linearGradient>
<linearGradient id="paint28_linear_2037_576091" x1="26.2672" y1="113.373" x2="16.2993" y2="120.591" gradientUnits="userSpaceOnUse">
<stop offset="0.5754" stop-color="#4D75D1"/>
<stop offset="0.8213" stop-color="#AAD7FE"/>
<stop offset="0.9742" stop-color="#4D75D1"/>
</linearGradient>
<linearGradient id="paint29_linear_2037_576091" x1="40.086" y1="107.509" x2="11.2266" y2="142.189" gradientUnits="userSpaceOnUse">
<stop stop-color="#ECF5FE"/>
<stop offset="0.7055" stop-color="#C9E3FE"/>
</linearGradient>
<linearGradient id="paint30_linear_2037_576091" x1="40.3028" y1="130.539" x2="-1.67835" y2="135.181" gradientUnits="userSpaceOnUse">
<stop stop-color="#D3EAFE"/>
<stop offset="0.8306" stop-color="#ADD5FE"/>
</linearGradient>
<linearGradient id="paint31_linear_2037_576091" x1="41.3671" y1="130.755" x2="111.712" y2="137.621" gradientUnits="userSpaceOnUse">
<stop offset="0.0358" stop-color="#D3EAFE"/>
<stop offset="0.2463" stop-color="#CAE5FE"/>
<stop offset="0.5871" stop-color="#B2D8FE"/>
<stop offset="0.6492" stop-color="#ADD5FE"/>
</linearGradient>
<linearGradient id="paint32_linear_2037_576091" x1="23.422" y1="123.706" x2="24.198" y2="123.706" gradientUnits="userSpaceOnUse">
<stop offset="0.5452" stop-color="#98C3FE"/>
<stop offset="0.7105" stop-color="#D3EAFE"/>
<stop offset="0.9073" stop-color="#89B6FE"/>
</linearGradient>
<linearGradient id="paint33_linear_2037_576091" x1="10.2193" y1="116.6" x2="23.4253" y2="116.6" gradientUnits="userSpaceOnUse">
<stop offset="0.012" stop-color="#D6EBFE"/>
<stop offset="0.231" stop-color="#CCE6FF"/>
<stop offset="0.416" stop-color="#E9F4FE"/>
<stop offset="0.6512" stop-color="#D5EAFE"/>
<stop offset="1" stop-color="#ABD5FF"/>
</linearGradient>
<linearGradient id="paint34_linear_2037_576091" x1="10.2193" y1="125.309" x2="23.4253" y2="125.309" gradientUnits="userSpaceOnUse">
<stop offset="0.012" stop-color="#D6EBFE"/>
<stop offset="0.231" stop-color="#CCE6FF"/>
<stop offset="0.416" stop-color="#E9F4FE"/>
<stop offset="0.6512" stop-color="#D5EAFE"/>
<stop offset="1" stop-color="#ABD5FF"/>
</linearGradient>
<linearGradient id="paint35_linear_2037_576091" x1="24.1956" y1="116.541" x2="40.2574" y2="116.541" gradientUnits="userSpaceOnUse">
<stop offset="0.012" stop-color="#D6EBFE"/>
<stop offset="0.231" stop-color="#CCE6FF"/>
<stop offset="0.416" stop-color="#E9F4FE"/>
<stop offset="0.6512" stop-color="#D5EAFE"/>
<stop offset="1" stop-color="#ABD5FF"/>
</linearGradient>
<linearGradient id="paint36_linear_2037_576091" x1="24.1956" y1="124.929" x2="40.241" y2="124.929" gradientUnits="userSpaceOnUse">
<stop offset="0.012" stop-color="#D6EBFE"/>
<stop offset="0.231" stop-color="#CCE6FF"/>
<stop offset="0.416" stop-color="#E9F4FE"/>
<stop offset="0.6512" stop-color="#D5EAFE"/>
<stop offset="1" stop-color="#ABD5FF"/>
</linearGradient>
<linearGradient id="paint37_linear_2037_576091" x1="67.1167" y1="123.775" x2="67.851" y2="123.775" gradientUnits="userSpaceOnUse">
<stop offset="0.5452" stop-color="#98C3FE"/>
<stop offset="0.7105" stop-color="#D3EAFE"/>
<stop offset="0.9073" stop-color="#89B6FE"/>
</linearGradient>
<linearGradient id="paint38_linear_2037_576091" x1="47.8044" y1="117.409" x2="67.1227" y2="117.409" gradientUnits="userSpaceOnUse">
<stop offset="0.012" stop-color="#D6EBFE"/>
<stop offset="0.231" stop-color="#CCE6FF"/>
<stop offset="0.416" stop-color="#E9F4FE"/>
<stop offset="0.6512" stop-color="#D5EAFE"/>
<stop offset="1" stop-color="#ABD5FF"/>
</linearGradient>
<linearGradient id="paint39_linear_2037_576091" x1="47.8044" y1="127.652" x2="67.1227" y2="127.652" gradientUnits="userSpaceOnUse">
<stop offset="0.012" stop-color="#D6EBFE"/>
<stop offset="0.231" stop-color="#CCE6FF"/>
<stop offset="0.416" stop-color="#E9F4FE"/>
<stop offset="0.6512" stop-color="#D5EAFE"/>
<stop offset="1" stop-color="#ABD5FF"/>
</linearGradient>
<linearGradient id="paint40_linear_2037_576091" x1="67.8519" y1="117.929" x2="82.4781" y2="117.929" gradientUnits="userSpaceOnUse">
<stop offset="0.012" stop-color="#D6EBFE"/>
<stop offset="0.231" stop-color="#CCE6FF"/>
<stop offset="0.416" stop-color="#E9F4FE"/>
<stop offset="0.6512" stop-color="#D5EAFE"/>
<stop offset="1" stop-color="#ABD5FF"/>
</linearGradient>
<linearGradient id="paint41_linear_2037_576091" x1="67.8519" y1="122.77" x2="84.0455" y2="122.77" gradientUnits="userSpaceOnUse">
<stop offset="0.012" stop-color="#D6EBFE"/>
<stop offset="0.231" stop-color="#CCE6FF"/>
<stop offset="0.416" stop-color="#E9F4FE"/>
<stop offset="0.6512" stop-color="#D5EAFE"/>
<stop offset="1" stop-color="#ABD5FF"/>
</linearGradient>
<linearGradient id="paint42_linear_2037_576091" x1="67.8519" y1="127.499" x2="84.0455" y2="127.499" gradientUnits="userSpaceOnUse">
<stop offset="0.012" stop-color="#D6EBFE"/>
<stop offset="0.231" stop-color="#CCE6FF"/>
<stop offset="0.416" stop-color="#E9F4FE"/>
<stop offset="0.6512" stop-color="#D5EAFE"/>
<stop offset="1" stop-color="#ABD5FF"/>
</linearGradient>
<linearGradient id="paint43_linear_2037_576091" x1="47.8237" y1="77.7797" x2="66.2341" y2="104.107" gradientUnits="userSpaceOnUse">
<stop stop-color="#1D4298"/>
<stop offset="1" stop-color="#3D95E5"/>
</linearGradient>
<linearGradient id="paint44_linear_2037_576091" x1="64.7431" y1="70.7578" x2="64.7431" y2="95.8417" gradientUnits="userSpaceOnUse">
<stop stop-color="#5F9CF9"/>
<stop offset="1" stop-color="#0050B3"/>
</linearGradient>
<linearGradient id="paint45_linear_2037_576091" x1="124.645" y1="74.5605" x2="122.297" y2="80.9606" gradientUnits="userSpaceOnUse">
<stop stop-color="white"/>
<stop offset="1" stop-color="white" stop-opacity="0"/>
</linearGradient>
<linearGradient id="paint46_linear_2037_576091" x1="279.981" y1="64.0781" x2="279.981" y2="146.33" gradientUnits="userSpaceOnUse">
<stop offset="0.0526068" stop-color="#D9D9D9"/>
<stop offset="1" stop-color="#D9D9D9" stop-opacity="0"/>
</linearGradient>
<linearGradient id="paint47_linear_2037_576091" x1="291.368" y1="159.5" x2="325.062" y2="159.5" gradientUnits="userSpaceOnUse">
<stop offset="0.1994" stop-color="#A8D5FE"/>
<stop offset="0.3818" stop-color="#D3EAFE"/>
<stop offset="0.5085" stop-color="#CEE7FE"/>
<stop offset="0.6602" stop-color="#BFDEFE"/>
<stop offset="0.8241" stop-color="#A7D0FE"/>
<stop offset="0.9821" stop-color="#89BEFE"/>
</linearGradient>
<linearGradient id="paint48_linear_2037_576091" x1="297.313" y1="164.922" x2="306.982" y2="164.922" gradientUnits="userSpaceOnUse">
<stop stop-color="#ECF5FE"/>
<stop offset="0.7055" stop-color="#C9E1FE"/>
</linearGradient>
<linearGradient id="paint49_linear_2037_576091" x1="294.11" y1="157.066" x2="303.115" y2="163.266" gradientUnits="userSpaceOnUse">
<stop offset="0.5754" stop-color="#718ED1"/>
<stop offset="0.8213" stop-color="#AAD7FE"/>
<stop offset="0.9742" stop-color="#718ED1"/>
</linearGradient>
<linearGradient id="paint50_linear_2037_576091" x1="297.313" y1="164.922" x2="306.539" y2="164.922" gradientUnits="userSpaceOnUse">
<stop stop-color="#ECF5FE"/>
<stop offset="0.7055" stop-color="#C9E1FE"/>
</linearGradient>
<linearGradient id="paint51_linear_2037_576091" x1="307.316" y1="159.084" x2="297.167" y2="164.546" gradientUnits="userSpaceOnUse">
<stop offset="0.1994" stop-color="#A8D5FE"/>
<stop offset="0.3818" stop-color="#D3EAFE"/>
<stop offset="0.5085" stop-color="#CEE7FE"/>
<stop offset="0.6602" stop-color="#BFDEFE"/>
<stop offset="0.8241" stop-color="#A7D0FE"/>
<stop offset="0.9821" stop-color="#89BEFE"/>
</linearGradient>
<linearGradient id="paint52_linear_2037_576091" x1="306.694" y1="166.905" x2="297.505" y2="172.219" gradientUnits="userSpaceOnUse">
<stop offset="0.1994" stop-color="#A8D5FE"/>
<stop offset="0.3818" stop-color="#D3EAFE"/>
<stop offset="0.5085" stop-color="#CEE7FE"/>
<stop offset="0.6602" stop-color="#BFDEFE"/>
<stop offset="0.8241" stop-color="#A7D0FE"/>
<stop offset="0.9821" stop-color="#89BEFE"/>
</linearGradient>
<linearGradient id="paint53_linear_2037_576091" x1="263.143" y1="64.3755" x2="237.018" y2="81.894" gradientUnits="userSpaceOnUse">
<stop offset="0.0180256" stop-color="#C1E1FF"/>
<stop offset="0.9771" stop-color="#E0F0FF"/>
</linearGradient>
<linearGradient id="paint54_linear_2037_576091" x1="243.488" y1="53.2639" x2="250.472" y2="81.065" gradientUnits="userSpaceOnUse">
<stop offset="0.3503" stop-color="#BEDDFA"/>
<stop offset="0.9771" stop-color="#E0F0FF"/>
</linearGradient>
<linearGradient id="paint55_linear_2037_576091" x1="251.78" y1="68.4809" x2="197.929" y2="104.591" gradientUnits="userSpaceOnUse">
<stop offset="0.0180256" stop-color="#C1E1FF"/>
<stop offset="0.9771" stop-color="#E0F0FF"/>
</linearGradient>
<linearGradient id="paint56_linear_2037_576091" x1="211.265" y1="45.5774" x2="225.661" y2="102.882" gradientUnits="userSpaceOnUse">
<stop offset="0.3503" stop-color="#BEDDFA"/>
<stop offset="0.9771" stop-color="#E0F0FF"/>
</linearGradient>
<linearGradient id="paint57_linear_2037_576091" x1="217.818" y1="72.2949" x2="217.818" y2="88.8884" gradientUnits="userSpaceOnUse">
<stop stop-color="#C2DFFA"/>
<stop offset="1" stop-color="#C2DFFA" stop-opacity="0"/>
</linearGradient>
<linearGradient id="paint58_linear_2037_576091" x1="191.826" y1="59.9034" x2="213.279" y2="139.931" gradientUnits="userSpaceOnUse">
<stop stop-color="#B5D8F9"/>
<stop offset="0.732" stop-color="#E1F1FF"/>
</linearGradient>
<linearGradient id="paint59_linear_2037_576091" x1="245.083" y1="62.11" x2="221.072" y2="127.913" gradientUnits="userSpaceOnUse">
<stop offset="0.368027" stop-color="#BADAF8"/>
<stop offset="0.924183" stop-color="#DBEEFF"/>
</linearGradient>
<linearGradient id="paint60_linear_2037_576091" x1="298.805" y1="83.5532" x2="257.75" y2="111.082" gradientUnits="userSpaceOnUse">
<stop offset="0.0180256" stop-color="#C1E1FF"/>
<stop offset="0.9771" stop-color="#E0F0FF"/>
</linearGradient>
<linearGradient id="paint61_linear_2037_576091" x1="267.914" y1="66.0921" x2="278.889" y2="109.78" gradientUnits="userSpaceOnUse">
<stop offset="0.3503" stop-color="#BEDDFA"/>
<stop offset="0.9771" stop-color="#E0F0FF"/>
</linearGradient>
<linearGradient id="paint62_linear_2037_576091" x1="314.706" y1="103.178" x2="288.58" y2="120.697" gradientUnits="userSpaceOnUse">
<stop offset="0.0180256" stop-color="#C1E1FF"/>
<stop offset="0.9771" stop-color="#E0F0FF"/>
</linearGradient>
<linearGradient id="paint63_linear_2037_576091" x1="295.051" y1="92.0666" x2="302.035" y2="119.868" gradientUnits="userSpaceOnUse">
<stop offset="0.3503" stop-color="#BEDDFA"/>
<stop offset="0.9771" stop-color="#E0F0FF"/>
</linearGradient>
<linearGradient id="paint64_linear_2037_576091" x1="247.427" y1="71.9688" x2="262.759" y2="129.168" gradientUnits="userSpaceOnUse">
<stop stop-color="#B5D8F9"/>
<stop offset="0.732" stop-color="#E1F1FF"/>
</linearGradient>
<linearGradient id="paint65_linear_2037_576091" x1="285.485" y1="73.5459" x2="268.323" y2="120.577" gradientUnits="userSpaceOnUse">
<stop offset="0.368027" stop-color="#BADAF8"/>
<stop offset="0.924183" stop-color="#DBEEFF"/>
</linearGradient>
<linearGradient id="paint66_linear_2037_576091" x1="280.694" y1="137.495" x2="300.388" y2="137.495" gradientUnits="userSpaceOnUse">
<stop offset="0.1994" stop-color="#A8CFFE"/>
<stop offset="0.4317" stop-color="#D3EAFE"/>
<stop offset="0.8422" stop-color="#9DCAFE"/>
</linearGradient>
<linearGradient id="paint67_linear_2037_576091" x1="292.441" y1="160.514" x2="316.134" y2="163.688" gradientUnits="userSpaceOnUse">
<stop offset="0.0995" stop-color="#D3EAFE"/>
<stop offset="0.9138" stop-color="#88BAF0"/>
</linearGradient>
<linearGradient id="paint68_linear_2037_576091" x1="295.914" y1="161.155" x2="283.561" y2="161.155" gradientUnits="userSpaceOnUse">
<stop offset="0.1994" stop-color="#A8D0FE"/>
<stop offset="0.8422" stop-color="#84B4E8"/>
</linearGradient>
<linearGradient id="paint69_linear_2037_576091" x1="157.849" y1="122.287" x2="158.197" y2="157.337" gradientUnits="userSpaceOnUse">
<stop stop-color="#ABCCF5"/>
<stop offset="1" stop-color="#ABCCF5" stop-opacity="0"/>
</linearGradient>
<linearGradient id="paint70_linear_2037_576091" x1="69.687" y1="36.7832" x2="67.188" y2="43.8857" gradientUnits="userSpaceOnUse">
<stop stop-color="white"/>
<stop offset="1" stop-color="white" stop-opacity="0"/>
</linearGradient>
<linearGradient id="paint71_linear_2037_576091" x1="295.082" y1="47.4445" x2="290.883" y2="59.3887" gradientUnits="userSpaceOnUse">
<stop stop-color="white"/>
<stop offset="1" stop-color="white" stop-opacity="0"/>
</linearGradient>
<linearGradient id="paint72_linear_2037_576091" x1="224.634" y1="55.0898" x2="222.956" y2="59.6622" gradientUnits="userSpaceOnUse">
<stop stop-color="white"/>
<stop offset="1" stop-color="white" stop-opacity="0"/>
</linearGradient>
<linearGradient id="paint73_linear_2037_576091" x1="192.617" y1="96.1855" x2="180.183" y2="131.549" gradientUnits="userSpaceOnUse">
<stop stop-color="#82A5FD"/>
<stop offset="1" stop-color="#1B57EF"/>
</linearGradient>
<linearGradient id="paint74_linear_2037_576091" x1="184.402" y1="119.139" x2="192.078" y2="104.111" gradientUnits="userSpaceOnUse">
<stop stop-color="#A3CFFB"/>
<stop offset="1" stop-color="#F2F7FC"/>
</linearGradient>
<linearGradient id="paint75_linear_2037_576091" x1="148.757" y1="61.2986" x2="117.778" y2="79.5479" gradientUnits="userSpaceOnUse">
<stop stop-color="#1A80FE"/>
<stop offset="0.88" stop-color="#1359C2"/>
<stop offset="1" stop-color="#0A50BE"/>
</linearGradient>
<linearGradient id="paint76_linear_2037_576091" x1="175.618" y1="123.019" x2="161.437" y2="119.127" gradientUnits="userSpaceOnUse">
<stop stop-color="#2C78D7"/>
<stop offset="0.8793" stop-color="#1B62CD"/>
<stop offset="1" stop-color="#155BC8"/>
</linearGradient>
<linearGradient id="paint77_linear_2037_576091" x1="139.533" y1="113.273" x2="152.873" y2="119.167" gradientUnits="userSpaceOnUse">
<stop stop-color="#2C78D7"/>
<stop offset="0.8793" stop-color="#1B62CD"/>
<stop offset="1" stop-color="#155BC8"/>
</linearGradient>
<linearGradient id="paint78_linear_2037_576091" x1="156.376" y1="82.0255" x2="157.003" y2="104.832" gradientUnits="userSpaceOnUse">
<stop stop-color="#549BFF"/>
<stop offset="1" stop-color="#549BFF" stop-opacity="0"/>
</linearGradient>
<linearGradient id="paint79_linear_2037_576091" x1="156.898" y1="65.7158" x2="157.725" y2="96.9231" gradientUnits="userSpaceOnUse">
<stop stop-color="#1B70D9"/>
<stop offset="0.87931" stop-color="#1961CC"/>
<stop offset="1" stop-color="#1865DC"/>
</linearGradient>
<linearGradient id="paint80_linear_2037_576091" x1="129.793" y1="30.7384" x2="129.114" y2="40.8956" gradientUnits="userSpaceOnUse">
<stop stop-color="#549BFF"/>
<stop offset="1" stop-color="#549BFF" stop-opacity="0"/>
</linearGradient>
<linearGradient id="paint81_linear_2037_576091" x1="192.532" y1="35.1633" x2="191.855" y2="45.2787" gradientUnits="userSpaceOnUse">
<stop stop-color="#549BFF"/>
<stop offset="1" stop-color="#549BFF" stop-opacity="0"/>
</linearGradient>
<linearGradient id="paint82_linear_2037_576091" x1="190.595" y1="26.3534" x2="162.318" y2="39.7934" gradientUnits="userSpaceOnUse">
<stop stop-color="#2C78D7"/>
<stop offset="0.88" stop-color="#0F5ACC"/>
<stop offset="1" stop-color="#0857D3"/>
</linearGradient>
<linearGradient id="paint83_linear_2037_576091" x1="183.187" y1="27.4471" x2="143.972" y2="53.7053" gradientUnits="userSpaceOnUse">
<stop stop-color="#357FD8"/>
<stop offset="1" stop-color="#357FD8" stop-opacity="0"/>
</linearGradient>
<linearGradient id="paint84_linear_2037_576091" x1="135.531" y1="30.1364" x2="186.064" y2="58.4171" gradientUnits="userSpaceOnUse">
<stop offset="0.1" stop-color="#2C78D7"/>
<stop offset="0.7" stop-color="#322FA9"/>
<stop offset="1" stop-color="#17156D"/>
</linearGradient>
<linearGradient id="paint85_linear_2037_576091" x1="180.483" y1="95.6122" x2="171.693" y2="82.8378" gradientUnits="userSpaceOnUse">
<stop stop-color="#1A80FE"/>
<stop offset="0.88" stop-color="#1359C2"/>
<stop offset="1" stop-color="#0A50BE"/>
</linearGradient>
</defs>
</svg>
